<svg xmlns="http://www.w3.org/2000/svg" xmlns:xlink="http://www.w3.org/1999/xlink" fill="none" version="1.1" width="245.0703125" height="144" viewBox="0 0 245.0703125 144"><defs><linearGradient x1="0.5" y1="0" x2="0.5" y2="1" id="master_svg0_12_5833"><stop offset="0%" stop-color="#FAFAFA" stop-opacity="1"/><stop offset="99.42853450775146%" stop-color="#FF7B00" stop-opacity="1"/></linearGradient><linearGradient x1="122.5703125" y1="100" x2="122.5703125" y2="144" gradientUnits="userSpaceOnUse" id="master_svg1_12_5894"><stop offset="0%" stop-color="#FAFAFA" stop-opacity="1"/><stop offset="100%" stop-color="#FF7B00" stop-opacity="1"/></linearGradient></defs><g><g><path d="M76.9378125,83.1636Q75.9373125,84.2499,74.1575125,85.9407Q71.1560125,88.8386,70.9878125,88.9594C70.8724125,89.0417,70.7367125,89.0838,70.5987125,89.0801C70.4041125,89.1104,70.2372125,88.9292,70.2651125,88.7179Q70.2651125,88.2366,71.1548125,87.5104L75.9369125,82.8013Q78.8273125,80.025,80.0518125,78.8167Q78.0507125,78.8167,76.0497125,78.9375C75.7584125,79.0239,75.4512125,79.0239,75.1600125,78.9375C74.8905125,78.9084,74.7232125,78.6055,74.8263125,78.3337Q74.9352125,77.7308,77.8279125,77.6093L79.3849125,77.6093C79.9056125,77.6038,80.4256125,77.5635,80.9418125,77.4885C84.2026125,73.0892,87.6930125,68.8965,91.3958125,64.931Q95.9543125,59.9812,98.4021125,59.9804C99.0264125,59.9617,99.6301125,60.2238,100.0703125,60.7049Q97.2889125,63.2405,93.2864125,68.5533L89.8388125,73.0209Q87.5033125,76.162,86.5024125,77.4885Q88.3919125,77.3694,89.9500125,77.3678L92.8415125,77.3678Q94.8426125,77.3678,94.3985125,78.0922C94.2938125,78.4608,93.9751125,78.708,93.6200125,78.696L88.9487125,78.696Q87.5014125,78.696,85.6124125,78.8167Q82.7189125,82.32,79.3845125,88.5971Q77.0490125,92.9423,77.0490125,94.0307C76.9386125,94.5658,77.1098125,95.1235,77.4939125,95.4796C77.9105125,95.8119,78.4503125,95.902,78.9396125,95.7211C79.4560125,95.5708,79.9450125,95.3258,80.3854125,94.9966L82.6097125,93.5477Q86.2804125,91.2552,90.6169125,86.5428Q91.7271125,85.4565,92.0627125,85.8183Q92.3963125,86.0615,91.1730125,87.388C89.0592125,89.6154,86.8314125,91.7116,84.5002125,93.6668Q78.7157125,98.619,74.2687125,98.6174Q70.5987125,98.6174,70.9324125,95.2365Q71.2660125,91.3734,76.9378125,83.2826L76.9378125,83.1619L76.9378125,83.1636ZM38.2168125,6.74197C14.6479125,5.08161,-6.5023375,34.0451,13.5885125,48.1047C21.7201125,51.1488,26.6365125,50.7912,32.0597125,49.3581C33.0360125,55.6799,35.5038125,72.6992,56.6880125,65.2347C38.2168125,87.6324,37.9055125,95.0786,14.3582125,95.7345C1.7400525,93.0605,3.1819625,88.7513,2.8136925,84.8716C12.8220125,84.2106,6.3774725,77.7451,3.1985025,76.5154C0.0195358,80.8456,0.7599245,82.7328,0.1199735,83.6181C-0.2506055,86.6982,1.1882225,94.3582,13.5885125,98.6591C26.7974125,102.082,37.8705125,98.2079,42.0650125,95.3167C48.1478125,91.5477,50.1888125,89.0747,57.0728125,80.2757C60.4419125,75.4475,63.4958125,68.2738,73.2351125,60.6389C79.1047125,56.4148,79.8313125,57.9674,82.0859125,57.7142C75.5032125,51.8173,64.4913125,61.0086,60.9210125,60.6389C45.8935125,64.8349,41.0544125,64.2708,38.6016125,59.8032C37.0370125,57.4017,37.7854125,48.9223,40.1409125,47.2691C41.5928125,47.3589,59.9974125,41.1929,68.2325125,36.4061C77.0991125,33.0842,99.4026125,17.6049,98.2482125,7.99538C95.1223125,0.728077,89.2354125,-0.284267,82.0859125,0.0570804C73.2351125,0.4799,64.3843125,4.85975,57.8425125,8.41319C50.6960125,12.6209,43.1151125,21.2323,41.2953125,23.872C38.4639125,26.8831,32.8375125,39.9771,32.4446125,46.4335C18.9183125,48.4949,10.5350125,43.0096,10.8948125,41.8376C9.3655825,33.8287,12.1293125,20.0248,38.2168125,6.74197ZM41.2953125,44.7623C48.2220125,22.7381,82.0747125,-0.0979263,96.3241125,9.2488C97.4128125,20.4222,65.1428125,38.3159,41.2953125,44.7623Z" fill-rule="evenodd" fill="url(#master_svg0_12_5833)" fill-opacity="1" style="mix-blend-mode:passthrough"/></g><g><path d="M2.6718725,133.6133Q1.1250025,132.4531,0.5625005000000001,130.7656Q0,129.0781,0.2109375,127.0918Q0.4218745,125.1055,1.2656225,122.9434Q2.1093725,120.7812,3.3574225,118.707Q4.6054725,116.6328,6.1699225,114.752Q7.7343725,112.8711,9.3691425,111.4473Q11.0039125,110.0234,12.6035125,109.16211Q14.2031125,108.30078,15.5391125,108.23047Q16.1719125,108.05469,16.8223125,108.26562Q17.4726125,108.47656,18.0000125,108.91602Q18.5273125,109.35547,18.8789125,109.95312Q19.2305125,110.5508,19.3359125,111.1309Q19.4414125,111.7109,19.1953125,112.2207Q18.9492125,112.7305,18.2812125,112.9766Q18.1758125,113.0469,17.9473125,113.0469Q17.7187125,113.0469,17.7187125,112.9766L17.7187125,110.1992Q17.7187125,110.1289,17.5430125,110.041Q17.3672125,109.95312,17.1387125,109.90039Q16.9101125,109.84766,16.6816125,109.8125Q16.4531125,109.77734,16.3125125,109.8125Q12.8320125,110.6914,10.3535125,112.7656Q7.8750025,114.8398,6.2226525,117.6875Q3.8671925,121.8008,2.7949225,124.543Q1.7226525,127.2852,1.5996125,128.9023Q1.4765625,130.5195,2.1796925,131.16989999999998Q2.8828125,131.8203,4.0781225,131.75Q5.2734325,131.6797,6.8554725,131.0293Q8.4375025,130.3789,10.0723125,129.4121Q11.7070125,128.4453,13.2539125,127.2676Q14.8008125,126.0898,15.9609125,125Q17.1211125,123.9102,17.7363125,123.0137Q18.3515125,122.1172,18.1406125,121.6953Q17.5781125,121.5898,16.9101125,121.748Q16.2422125,121.9062,15.7500125,122.082Q15.4336125,122.1875,14.5723125,122.4688Q13.7109125,122.75,12.7617125,123.0664Q11.8125125,123.3828,10.9687125,123.6641Q10.1250125,123.9453,9.8085925,124.0859Q9.3164025,124.2617,8.9824225,123.998Q8.6484325,123.7344,8.5253925,123.3301Q8.4023425,122.9258,8.5078125,122.5566Q8.6132825,122.1875,9.0000025,122.082Q9.5625025,121.9766,10.9863125,121.4668Q12.4101125,120.957,14.2031125,120.3418Q15.9961125,119.7266,17.8945125,119.1289Q19.7930125,118.5312,21.2344125,118.25Q22.6758125,117.9688,23.4316125,118.1621Q24.1875125,118.3555,23.7305125,119.3047Q23.4141125,119.6562,22.5703125,120.5176Q21.7265125,121.3789,20.7773125,122.3281Q19.8281125,123.2773,18.9668125,124.1211Q18.1055125,124.9648,17.7539125,125.2812Q17.6133125,125.3867,16.9629125,125.9492Q16.3125125,126.5117,15.4863125,127.1973Q14.6601125,127.8828,13.8515125,128.5684Q13.0430125,129.2539,12.5859125,129.6055Q12.1289125,129.9922,11.4258125,130.5898Q10.7226125,131.1875,9.8613325,131.80270000000002Q9.0000025,132.418,8.0507825,132.9629Q7.1015625,133.5078,6.1523425,133.8242Q5.2031225,134.1406,4.3066425,134.1406Q3.4101525,134.1406,2.6718725,133.6133ZM24.4336125,133.6133Q23.3789125,133.2617,22.8340125,132.541Q22.2891125,131.8203,22.1133125,130.9414Q21.9375125,130.0625,22.0605125,129.0957Q22.1836125,128.1289,22.4648125,127.25Q23.5195125,126.125,24.8379125,124.666Q26.1562125,123.207,27.6328125,121.8008Q29.1094125,120.3945,30.7090125,119.1816Q32.3086125,117.9688,33.9609125,117.3359Q34.5234125,117.0898,34.8574125,117.3535Q35.1914125,117.6172,35.3320125,118.1797Q35.4726125,118.7422,35.4551125,119.4805Q35.4375125,120.2188,35.3320125,120.9219Q35.2265125,121.625,35.0508125,122.1875Q34.8750125,122.75,34.6992125,122.9609Q34.2773125,123.4531,33.0644125,124.1211Q31.8515125,124.7891,30.3750125,125.5801Q28.8984125,126.3711,27.4219125,127.2148Q25.9453125,128.0586,24.9961125,128.88479999999998Q24.0469125,129.7109,23.8711125,130.5195Q23.6953125,131.3281,24.8555125,131.9961Q26.0508125,132.1367,27.7558125,131.873Q29.4609125,131.6094,31.2363125,131.16989999999998Q33.0117125,130.7305,34.6641125,130.2559Q36.3164125,129.7812,37.3711125,129.5L37.7930125,129.8867Q37.0195125,130.9062,35.2617125,131.75Q33.5039125,132.5938,31.4648125,133.1387Q29.4258125,133.6836,27.4922125,133.8418Q25.5586125,134,24.4336125,133.6133ZM32.8359125,120.1836Q32.8008125,120.1484,32.3086125,120.4824Q31.8164125,120.8164,31.0957125,121.3613Q30.3750125,121.9062,29.5488125,122.5566Q28.7226125,123.207,28.0371125,123.7695Q27.3515125,124.332,26.8945125,124.7363Q26.4375125,125.1406,26.5078125,125.1406Q27.0703125,125.2461,27.9668125,124.9824Q28.8633125,124.7188,29.8301125,124.2266Q30.7969125,123.7344,31.6758125,123.1191Q32.5547125,122.5039,33.0644125,121.9062Q33.5742125,121.3086,33.5918125,120.8516Q33.6094125,120.3945,32.8359125,120.1836ZM50.4492125,133.6133Q50.3437125,132.4531,50.6426125,131.3105Q50.9414125,130.168,51.4512125,129.0605Q51.9609125,127.9531,52.5410125,126.8457Q53.1211125,125.7383,53.5430125,124.666Q53.9648125,123.5938,54.1406125,122.5566Q54.3164125,121.5195,54.0000125,120.5Q53.1211125,120.1836,51.9785125,120.6406Q50.8359125,121.0977,49.5703125,122.0293Q48.3047125,122.9609,46.9512125,124.209Q45.5976125,125.457,44.3144125,126.7402Q43.0312125,128.0234,41.8711125,129.1836Q40.7109125,130.3438,39.7793125,131.0996Q38.8476125,131.8555,38.2148125,132.0488Q37.5820125,132.2422,37.3711125,131.6094Q37.3359125,131.5742,37.7754125,130.7129Q38.2148125,129.8516,38.8652125,128.5508Q39.5156125,127.25,40.3066125,125.7383Q41.0976125,124.2266,41.8008125,122.9082Q42.5039125,121.5898,43.0312125,120.6758Q43.5586125,119.7617,43.6992125,119.6914Q44.4375125,120.1836,44.4551125,120.7637Q44.4726125,121.3438,44.2617125,121.959Q44.0508125,122.5742,43.7871125,123.207Q43.5234125,123.8398,43.6992125,124.4727Q44.2617125,124.0859,45.2637125,123.4004Q46.2656125,122.7148,47.4433125,121.9766Q48.6211125,121.2383,49.9043125,120.5352Q51.1875125,119.832,52.3125125,119.4277Q53.4375125,119.0234,54.3340125,118.9883Q55.2305125,118.9531,55.6523125,119.5156Q56.0742125,120.0781,55.9160125,121.3613Q55.7578125,122.6445,54.8086125,124.8594Q54.7031125,125.1055,54.2988125,126.0371Q53.8945125,126.9688,53.4199125,128.041Q52.9453125,129.1133,52.5410125,130.04489999999998Q52.1367125,130.9766,52.0312125,131.2227Q51.9961125,131.3633,51.9433125,131.73239999999998Q51.8906125,132.1016,51.8203125,132.541Q51.7500125,132.9805,51.6094125,133.38479999999998Q51.4687125,133.7891,51.2578125,134Q51.0469125,134.2109,50.7656125,133.94729999999998Q50.4844125,133.6836,50.4492125,133.6133ZM70.6992125,133.6133Q70.5937125,132.4531,70.8926125,131.3105Q71.1914125,130.168,71.7012125,129.0605Q72.2109125,127.9531,72.7910125,126.8457Q73.3711125,125.7383,73.7930125,124.666Q74.2148125,123.5938,74.3906125,122.5566Q74.5664125,121.5195,74.2500125,120.5Q73.3711125,120.1836,72.2285125,120.6406Q71.0859125,121.0977,69.8203125,122.0293Q68.5547125,122.9609,67.2012125,124.209Q65.8476125,125.457,64.5644125,126.7402Q63.2812125,128.0234,62.1211125,129.1836Q60.9609125,130.3438,60.0293125,131.0996Q59.0976125,131.8555,58.4648125,132.0488Q57.8320125,132.2422,57.6211125,131.6094Q57.5859125,131.5742,58.0254125,130.7129Q58.4648125,129.8516,59.1152125,128.5508Q59.7656125,127.25,60.5566125,125.7383Q61.3476125,124.2266,62.0508125,122.9082Q62.7539125,121.5898,63.2812125,120.6758Q63.8086125,119.7617,63.9492125,119.6914Q64.6875125,120.1836,64.7051125,120.7637Q64.7226125,121.3438,64.5117125,121.959Q64.3008125,122.5742,64.0371125,123.207Q63.7734125,123.8398,63.9492125,124.4727Q64.5117125,124.0859,65.5137125,123.4004Q66.5156125,122.7148,67.6933125,121.9766Q68.8711125,121.2383,70.1543125,120.5352Q71.4375125,119.832,72.5625125,119.4277Q73.6875125,119.0234,74.5840125,118.9883Q75.4805125,118.9531,75.9023125,119.5156Q76.3242125,120.0781,76.1660125,121.3613Q76.0078125,122.6445,75.0586125,124.8594Q74.9531125,125.1055,74.5488125,126.0371Q74.1445125,126.9688,73.6699125,128.041Q73.1953125,129.1133,72.7910125,130.04489999999998Q72.3867125,130.9766,72.2812125,131.2227Q72.2461125,131.3633,72.1933125,131.73239999999998Q72.1406125,132.1016,72.0703125,132.541Q72.0000125,132.9805,71.8594125,133.38479999999998Q71.7187125,133.7891,71.5078125,134Q71.2969125,134.2109,71.0156125,133.94729999999998Q70.7344125,133.6836,70.6992125,133.6133ZM77.6250125,133.6133Q79.0664125,128.9727,80.2441125,126.248Q81.4219125,123.5234,82.2129125,122.4336Q83.0039125,121.3438,83.2851125,121.7305Q83.5664125,122.1172,83.2324125,123.6992Q82.8984125,125.2812,81.8262125,127.9355Q80.7539125,130.5898,78.8203125,134Q78.5391125,134.1055,78.1523125,134.0352Q77.7656125,133.9648,77.6250125,133.6133ZM83.7773125,116.7031Q83.7070125,116.5273,83.7070125,116.0703Q83.7070125,115.6133,83.7773125,115.5078Q84.5859125,115.2266,85.0078125,115.4375Q85.4297125,115.6484,85.5351125,116.0527Q85.6406125,116.457,85.5176125,116.9141Q85.3945125,117.3711,85.1133125,117.5996Q84.8320125,117.8281,84.4629125,117.6699Q84.0937125,117.5117,83.7773125,116.7031ZM87.1875125,133.6133Q86.7656125,133.332,87.1699125,132.85739999999998Q87.5742125,132.3828,88.4707125,131.8379Q89.3672125,131.293,90.5625125,130.6953Q91.7578125,130.0977,92.8652125,129.5703Q93.9726125,129.043,94.8164125,128.6387Q95.6601125,128.2344,95.9062125,128.0234Q97.0664125,127.0391,97.1191125,126.3887Q97.1719125,125.7383,96.5391125,125.334Q95.9062125,124.9297,94.7637125,124.7012Q93.6211125,124.4727,92.4082125,124.2793Q91.1953125,124.0859,90.0879125,123.875Q88.9805125,123.6641,88.4180125,123.3125Q87.8555125,122.9609,88.0488125,122.3809Q88.2422125,121.8008,89.5781125,120.8867Q90.0703125,120.5352,91.0195125,119.8672Q91.9687125,119.1992,93.0762125,118.4961Q94.1836125,117.793,95.2734125,117.2305Q96.3633125,116.668,97.1015125,116.4922Q97.4883125,116.4219,97.8926125,116.5625Q98.2969125,116.7031,98.5430125,116.9668Q98.7891125,117.2305,98.7715125,117.5469Q98.7539125,117.8633,98.2969125,118.1094Q96.2930125,119.2344,94.4473125,120.2188Q92.6015125,121.2031,90.7383125,122.4688Q90.6328125,122.75,90.7910125,122.9609Q90.9492125,123.1719,91.1601125,123.2773Q94.8867125,123.6641,96.7676125,124.3672Q98.6484125,125.0703,99.1582125,125.9141Q99.6680125,126.7578,99.0351125,127.707Q98.4023125,128.6562,97.1543125,129.5703Q95.9062125,130.4844,94.2891125,131.293Q92.6719125,132.1016,91.1777125,132.6641Q89.6836125,133.2266,88.5586125,133.5078Q87.4336125,133.7891,87.1875125,133.6133ZM102.0933125,133.1914Q101.2503125,132.4883,101.1623125,131.1172Q101.0743125,129.7461,101.5493125,128.0234Q102.0233125,126.3008,102.9553125,124.4199Q103.8863125,122.5391,105.1173125,120.834Q106.3473125,119.1289,107.7893125,117.7754Q109.2303125,116.4219,110.6723125,115.7715Q112.1133125,115.1211,113.4843125,115.3145Q114.8553125,115.5078,115.9803125,116.9141Q116.6833125,117.793,116.8243125,118.6895Q116.9653125,119.5859,116.7893125,120.5176Q116.6133125,121.4492,116.2263125,122.416Q115.8403125,123.3828,115.4703125,124.3672Q115.1013125,125.3516,114.8733125,126.3711Q114.6443125,127.3906,114.7853125,128.4453Q114.9613125,129.7812,115.9803125,130.0273Q117.0003125,130.2734,118.4243125,129.8867Q119.8473125,129.5,121.4293125,128.6562Q123.0113125,127.8125,124.3653125,126.9688Q125.7183125,126.125,126.6153125,125.4922Q127.5113125,124.8594,127.5113125,124.8594Q128.4963125,124.6484,128.6193125,124.9824Q128.7423125,125.3164,128.2323125,125.9668Q127.7223125,126.6172,126.7033125,127.4434Q125.6833125,128.2695,124.3823125,129.043Q123.0823125,129.8164,121.6053125,130.4492Q120.1293125,131.082,118.7223125,131.3105Q117.3163125,131.5391,116.0683125,131.2754Q114.8203125,131.0117,114.0113125,130.0273Q113.6253125,129.6055,113.4313125,129.1836Q113.2383125,128.7617,112.8163125,128.4453Q112.2893125,128.9375,111.5503125,129.7285Q110.8123125,130.5195,109.9513125,131.3105Q109.0903125,132.1016,108.1233125,132.8047Q107.1563125,133.5078,106.1363125,133.8594Q105.1173125,134.2109,104.0803125,134.1055Q103.0433125,134,102.0933125,133.1914ZM102.4803125,131.9961Q102.7973125,133.1211,103.8863125,133.0332Q104.9763125,132.9453,106.4183125,131.9609Q107.8593125,130.9766,109.4063125,129.2715Q110.9533125,127.5664,112.1833125,125.4746Q113.4143125,123.3828,114.0643125,121.0625Q114.7153125,118.7422,114.3983125,116.4922Q113.5543125,115.8242,112.2893125,116.4395Q111.0233125,117.0547,109.5993125,118.4434Q108.1753125,119.832,106.7873125,121.748Q105.3983125,123.6641,104.3433125,125.6152Q103.2893125,127.5664,102.7443125,129.2891Q102.1993125,131.0117,102.4803125,131.9961ZM130.9223125,133.6133Q130.7113125,132.7344,130.9393125,131.5918Q131.1683125,130.4492,131.5903125,129.2891Q132.0113125,128.1289,132.5043125,127.0566Q132.9963125,125.9844,133.3123125,125.2812Q133.4883125,124.8594,133.8573125,124.0508Q134.2263125,123.2422,134.7013125,122.2227Q135.1753125,121.2031,135.6853125,120.0781Q136.1953125,118.9531,136.6703125,117.9336Q137.1443125,116.9141,137.5133125,116.123Q137.8823125,115.332,138.0583125,114.9453Q137.4613125,114.8398,136.3533125,115.0508Q135.2463125,115.2617,133.9103125,115.5957Q132.5743125,115.9297,131.1683125,116.2812Q129.7613125,116.6328,128.5493125,116.791Q127.3363125,116.9492,126.4743125,116.8262Q125.6133125,116.7031,125.4023125,116.1055Q125.6483125,115.6484,127.1953125,115.0508Q128.7423125,114.4531,131.1503125,113.8027Q133.5583125,113.1523,136.5293125,112.4844Q139.5003125,111.8164,142.5933125,111.2188Q145.6873125,110.6211,148.6403125,110.1289Q151.5933125,109.63672,153.9143125,109.32031Q156.2343125,109.00391,157.6583125,108.89844Q159.0823125,108.79297,159.1523125,108.96875Q159.2583125,109.25,159.1873125,109.6543Q159.1173125,110.0586,158.7303125,110.1641Q157.0083125,110.4453,155.0043125,110.7793Q153.0003125,111.1133,150.9433125,111.4824Q148.8863125,111.8516,146.9183125,112.2207Q144.9493125,112.5898,143.2613125,112.9414Q142.1723125,113.1523,141.1523125,114.207Q140.1323125,115.2617,139.1833125,116.8262Q138.2343125,118.3906,137.3553125,120.3066Q136.4763125,122.2227,135.6853125,124.1914Q134.8943125,126.1602,134.2263125,127.9883Q133.5583125,129.8164,132.9963125,131.20510000000002Q132.4333125,132.5938,132.0113125,133.3672Q131.5903125,134.1406,131.3083125,134Q131.2383125,133.9297,131.0973125,133.7891Q130.9573125,133.6484,130.9223125,133.6133ZM147.3753125,133.6133Q146.3203125,133.2617,145.7753125,132.541Q145.2303125,131.8203,145.0543125,130.9414Q144.8793125,130.0625,145.0023125,129.0957Q145.1253125,128.1289,145.4063125,127.25Q146.4613125,126.125,147.7793125,124.666Q149.0973125,123.207,150.5743125,121.8008Q152.0503125,120.3945,153.6503125,119.1816Q155.2503125,117.9688,156.9023125,117.3359Q157.4653125,117.0898,157.7993125,117.3535Q158.1323125,117.6172,158.2733125,118.1797Q158.4143125,118.7422,158.3963125,119.4805Q158.3793125,120.2188,158.2733125,120.9219Q158.1683125,121.625,157.9923125,122.1875Q157.8163125,122.75,157.6403125,122.9609Q157.2183125,123.4531,156.0063125,124.1211Q154.7933125,124.7891,153.3163125,125.5801Q151.8403125,126.3711,150.3633125,127.2148Q148.8863125,128.0586,147.9373125,128.88479999999998Q146.9883125,129.7109,146.8123125,130.5195Q146.6363125,131.3281,147.7973125,131.9961Q148.9923125,132.1367,150.6973125,131.873Q152.4023125,131.6094,154.1773125,131.16989999999998Q155.9533125,130.7305,157.6053125,130.2559Q159.2583125,129.7812,160.3123125,129.5L160.7343125,129.8867Q159.9613125,130.9062,158.2033125,131.75Q156.4453125,132.5938,154.4063125,133.1387Q152.3673125,133.6836,150.4333125,133.8418Q148.5003125,134,147.3753125,133.6133ZM155.7773125,120.1836Q155.7423125,120.1484,155.2503125,120.4824Q154.7583125,120.8164,154.0373125,121.3613Q153.3163125,121.9062,152.4903125,122.5566Q151.6643125,123.207,150.9783125,123.7695Q150.2933125,124.332,149.8363125,124.7363Q149.3793125,125.1406,149.4493125,125.1406Q150.0113125,125.2461,150.9083125,124.9824Q151.8043125,124.7188,152.7713125,124.2266Q153.7383125,123.7344,154.6173125,123.1191Q155.4963125,122.5039,156.0063125,121.9062Q156.5153125,121.3086,156.5333125,120.8516Q156.5503125,120.3945,155.7773125,120.1836ZM161.6833125,133.1914Q160.8403125,132.4883,160.7523125,131.1172Q160.6643125,129.7461,161.1383125,128.0234Q161.6133125,126.3008,162.5453125,124.4199Q163.4763125,122.5391,164.7073125,120.834Q165.9373125,119.1289,167.3793125,117.7754Q168.8203125,116.4219,170.2613125,115.7715Q171.7033125,115.1211,173.0743125,115.3145Q174.4453125,115.5078,175.5703125,116.9141Q176.2733125,117.793,176.4143125,118.6895Q176.5543125,119.5859,176.3793125,120.5176Q176.2033125,121.4492,175.8163125,122.416Q175.4293125,123.3828,175.0603125,124.3672Q174.6913125,125.3516,174.4633125,126.3711Q174.2343125,127.3906,174.3753125,128.4453Q174.5503125,129.7812,175.5703125,130.0273Q176.5903125,130.2734,178.0133125,129.8867Q179.4373125,129.5,181.0193125,128.6562Q182.6013125,127.8125,183.9553125,126.9688Q185.3083125,126.125,186.2053125,125.4922Q187.1013125,124.8594,187.1013125,124.8594Q188.0863125,124.6484,188.2093125,124.9824Q188.3323125,125.3164,187.8223125,125.9668Q187.3123125,126.6172,186.2933125,127.4434Q185.2733125,128.2695,183.9723125,129.043Q182.6723125,129.8164,181.1953125,130.4492Q179.7183125,131.082,178.3123125,131.3105Q176.9063125,131.5391,175.6583125,131.2754Q174.4103125,131.0117,173.6013125,130.0273Q173.2153125,129.6055,173.0213125,129.1836Q172.8283125,128.7617,172.4063125,128.4453Q171.8793125,128.9375,171.1403125,129.7285Q170.4023125,130.5195,169.5413125,131.3105Q168.6793125,132.1016,167.7133125,132.8047Q166.7463125,133.5078,165.7263125,133.8594Q164.7073125,134.2109,163.6703125,134.1055Q162.6323125,134,161.6833125,133.1914ZM162.0703125,131.9961Q162.3863125,133.1211,163.4763125,133.0332Q164.5663125,132.9453,166.0083125,131.9609Q167.4493125,130.9766,168.9963125,129.2715Q170.5433125,127.5664,171.7733125,125.4746Q173.0043125,123.3828,173.6543125,121.0625Q174.3043125,118.7422,173.9883125,116.4922Q173.1443125,115.8242,171.8793125,116.4395Q170.6133125,117.0547,169.1893125,118.4434Q167.7653125,119.832,166.3773125,121.748Q164.9883125,123.6641,163.9333125,125.6152Q162.8793125,127.5664,162.3343125,129.2891Q161.7893125,131.0117,162.0703125,131.9961ZM206.2263125,133.1914Q205.8403125,132.7344,205.7873125,132.1543Q205.7343125,131.5742,205.8573125,130.9941Q205.9803125,130.4141,206.2093125,129.8691Q206.4373125,129.3242,206.6483125,128.8672Q206.7893125,128.5156,207.2283125,127.584Q207.6683125,126.6523,208.1773125,125.6328Q208.6873125,124.6133,209.1443125,123.7168Q209.6013125,122.8203,209.7773125,122.4688L209.7773125,121.6953Q209.4253125,121.5195,208.3363125,122.1699Q207.2463125,122.8203,205.8043125,123.9629Q204.3633125,125.1055,202.7463125,126.5117Q201.1293125,127.918,199.7053125,129.2012Q198.2813125,130.4844,197.2263125,131.4863Q196.1723125,132.4883,195.8903125,132.8047Q195.1173125,133.0508,194.8883125,132.4707Q194.6603125,131.8906,194.7653125,130.8535Q194.8713125,129.8164,195.1873125,128.5332Q195.5043125,127.25,195.8383125,126.1074Q196.1723125,124.9648,196.4353125,124.1562Q196.6993125,123.3477,196.6643125,123.2773Q195.9613125,123.0312,195.1873125,123.4531Q194.4143125,123.875,193.6053125,124.7012Q192.7973125,125.5273,191.9883125,126.6348Q191.1793125,127.7422,190.3713125,128.8496Q189.5623125,129.957,188.8243125,130.959Q188.0863125,131.9609,187.4183125,132.5938Q186.7503125,133.2266,186.1703125,133.332Q185.5903125,133.4375,185.1683125,132.8047Q185.1323125,132.7695,185.1323125,132.6289Q185.1323125,132.4883,185.1683125,132.418Q185.3433125,132.0664,185.7133125,131.3105Q186.0823125,130.5547,186.5393125,129.6055Q186.9963125,128.6562,187.5233125,127.6191Q188.0503125,126.582,188.5253125,125.6504Q189.0003125,124.7188,189.3693125,123.9805Q189.7383125,123.2422,189.9493125,122.8906Q190.1253125,122.5391,190.4413125,121.9941Q190.7583125,121.4492,191.0743125,120.9395Q191.3903125,120.4297,191.6363125,120.0605Q191.8823125,119.6914,191.8823125,119.6914L192.7263125,119.6914Q192.9723125,120.5,192.6563125,121.2031Q192.3403125,121.9062,191.9003125,122.5742Q191.4613125,123.2422,191.1623125,123.8926Q190.8633125,124.543,191.1443125,125.2812Q194.1683125,122.6094,195.8023125,121.3438Q197.4373125,120.0781,198.1053125,119.9023Q198.7733125,119.7266,198.7383125,120.4297Q198.7033125,121.1328,198.4393125,122.3281Q198.1753125,123.5234,197.9123125,125.0527Q197.6483125,126.582,197.8593125,128.0234L198.2813125,128.0234Q198.4923125,127.8828,198.9843125,127.4961Q199.4763125,127.1094,200.0563125,126.6523Q200.6363125,126.1953,201.1463125,125.8086Q201.6563125,125.4219,201.8673125,125.2812Q202.2543125,124.9648,202.9923125,124.4023Q203.7303125,123.8398,204.4863125,123.2598Q205.2423125,122.6797,205.8573125,122.2402Q206.4723125,121.8008,206.6483125,121.6953Q206.7893125,121.5898,207.2633125,121.2559Q207.7383125,120.9219,208.3183125,120.5352Q208.8983125,120.1484,209.4253125,119.8145Q209.9533125,119.4805,210.1993125,119.3047Q210.7263125,118.9531,211.1833125,118.9883Q211.6403125,119.0234,211.9393125,119.3223Q212.2383125,119.6211,212.3083125,120.1309Q212.3793125,120.6406,212.1683125,121.2734Q211.3243125,122.8555,210.4983125,124.3672Q209.6723125,125.8789,208.9863125,127.4082Q208.3003125,128.9375,207.8613125,130.5547Q207.4223125,132.1719,207.3863125,134Q207.2113125,134.1055,207.0173125,134Q206.8243125,133.8945,206.6483125,133.7188Q206.4723125,133.543,206.3493125,133.3672Q206.2263125,133.1914,206.2263125,133.1914Z" fill="url(#master_svg1_12_5894)" fill-opacity="1"/></g></g></svg>