<svg xmlns="http://www.w3.org/2000/svg" xmlns:xlink="http://www.w3.org/1999/xlink" fill="none" version="1.1" width="369" height="126" viewBox="0 0 369 126"><g><g><path d="M32,36.16L35.92,69.68L27.92,69.68L24.72,40.32L24.72,69.68L16.16,69.68L16.16,40.64L12.96,69.68L5.04,69.68L9.6,30.08L6.48,30.08L6.48,26.32L16.16,26.32L16.16,20.56L24.72,20.56L24.72,26.32L34.8,26.32L32.72,30.08L24.72,30.08L24.72,36.16L32,36.16ZM74.96,42.8L74.96,50L55.2,40.8L36.4,50L36.4,42.8L47.52,37.28L39.52,33.52L36.4,36.48L36.4,26.96L43.2,20.56L53.68,20.56L51.12,22.96L73.76,22.96L73.76,31.76L62.64,37.2L74.96,42.8ZM37.52,49.76L73.76,49.76L73.76,69.76L37.52,69.76L37.52,49.76ZM46.56,65.6L64.8,65.6L64.8,51.28L62.4,53.68L46.56,53.68L46.56,65.6ZM54.72,33.68L64.64,28.72L64.64,26.8L46.88,26.8L44.48,29.04L54.72,33.68ZM90,24.24L90,34.56L132.72,34.56L132.72,20.56L142.24,20.56L142.24,38.08L90,38.08L90,51.12L87.44,69.76L77.76,69.76L80.72,51.12L80.72,20.56L132.72,20.56L129.84,24.24L90,24.24ZM104.08,55.28L139.28,45.12L139.28,50.08L104.08,60.16L104.08,66.08L144.64,66.08L142.56,69.76L94.56,69.76L94.56,40.08L104.08,40.08L104.08,55.28ZM201.92,69.76L194.32,69.76L201.52,51.76L194.32,36.48L201.92,36.48L204.96,43.04L207.6,36.48L207.6,29.92L200.88,29.92L199.92,34.88L192.4,34.88L195.12,20.64L202.64,20.64L201.6,26.16L217.52,26.16L216.4,29.92L215.2,29.92L215.2,36.48L209.04,51.76L217.52,69.68L209.92,69.68L205.6,60.48L201.92,69.76ZM191.84,42.08L191.84,69.68L180.4,69.68L179.28,65.92L184.24,65.92L184.24,60.16L176.4,60.16L176.4,60.4L174.32,69.76L166.72,69.76L168.8,60.4L168.8,42.08L191.84,42.08ZM162.16,29.92L167.28,29.92L165.52,33.68L162.16,33.68L162.16,48.16L166.96,46.8L166.96,50.72L162.16,52.24L162.16,69.76L149.44,69.76L147.6,66.24L153.04,66.24L153.04,54.8L147.28,56.32L147.28,52.24L153.04,50.56L153.04,33.68L147.6,33.68L147.6,29.92L153.04,29.92L153.04,21.36L162.16,21.36L162.16,29.92ZM192.8,36.48L191.68,40.24L167.76,40.24L167.76,36.48L170.64,36.48L170.64,30.16L167.76,30.16L167.76,26.32L170.64,26.32L170.64,20.64L178.24,20.64L178.24,26.32L181.92,26.32L181.92,20.64L189.52,20.64L189.52,26.32L192.8,26.32L191.68,30.16L189.52,30.16L189.52,36.48L192.8,36.48ZM184.24,42.08L183.12,45.84L176.4,45.84L176.4,49.36L184.24,49.36L184.24,42.08ZM176.4,56.4L184.24,56.4L184.24,53.12L176.4,53.12L176.4,56.4ZM178.24,36.48L181.92,36.48L181.92,30.16L178.24,30.16L178.24,36.48ZM272.48,24.08L272.48,32.08L285.92,32.08L285.92,69.76L237.6,69.76L237.6,32.08L250.96,32.08L250.96,24.08L234.8,24.08L234.8,20.56L288.64,20.56L286.32,24.08L272.48,24.08ZM272.48,35.6L272.48,51.6L276.8,51.6L274.4,55.12L263.36,55.12L263.36,35.6L260.08,35.6L260.08,55.12L249.12,55.12L246.72,51.6L246.72,66.32L276.8,66.32L276.8,35.6L272.48,35.6ZM224.8,45.92L234.08,45.92L227.76,69.76L218.48,69.76L224.8,45.92ZM218.48,31.28L223.68,31.28L218.48,20.64L227.76,20.64L233.2,31.68L228,31.68L233.2,42.56L224,42.56L218.48,31.28ZM247.68,58.96L276.24,58.96L273.84,62.48L247.68,62.48L247.68,58.96ZM250.96,51.6L250.96,35.6L246.72,35.6L246.72,51.6L250.96,51.6ZM263.36,24.08L260.08,24.08L260.08,32.08L263.36,32.08L263.36,24.08ZM349.6,65.84L349.6,54.4L358.72,54.4L358.72,69.6L317.76,69.6L317.76,35.44L347.36,35.44L345.2,39.2L326.88,39.2L326.88,46L347.36,46L347.36,35.44L356.48,35.44L356.48,49.84L326.88,49.84L326.88,54.4L349.6,54.4L347.52,58.24L326.88,58.24L326.88,65.84L349.6,65.84ZM304.4,35.44L304.4,62.48L313.84,60L312.4,64.64L295.12,69.76L295.12,35.44L304.4,35.44ZM316.64,24.08L333.2,24.08L333.2,20.64L342.32,20.64L342.32,24.08L349.68,24.08L347.6,27.92L325.76,27.92L325.76,32.8L316.64,32.8L316.64,24.08ZM304.24,20.64L302.16,25.44L314.64,25.44L314.64,36.96L306.48,36.96L306.48,29.12L290.64,29.12L294.56,20.64L304.24,20.64ZM358.88,32.72L349.68,32.72L349.68,24.08L358.88,24.08L358.88,32.72Z" fill="#FAFAFA" fill-opacity="1"/></g><g><path d="M87.8301,100.291Q87.9121,100.5781,88.1582,100.9062Q88.4043,101.2344,88.4043,101.3984Q88.0762,102.1777,87.9121,102.6084Q87.748,103.0391,87.3789,103.3672Q87.3789,103.4902,87.1328,103.9004Q86.8867,104.3105,86.5791,104.7822Q86.2715,105.2539,85.9639,105.6846Q85.6562,106.1152,85.5742,106.2793Q85.3691,106.6074,85.2461,106.91499999999999Q85.123,107.2227,84.959,107.5098Q84.5898,108.166,84.2002,108.7402Q83.8105,109.31450000000001,83.4824,110.01169999999999Q83.2773,110.2168,83.1133,110.46289999999999Q82.9492,110.709,82.7441,110.91409999999999Q82.252,111.8164,81.61619999999999,112.5957Q80.9805,113.375,80.4473,114.3184Q80.8984,114.7695,80.8984,115.4668Q80.8984,115.83590000000001,80.6934,115.85640000000001Q80.4883,115.87700000000001,80.3242,115.959Q79.9141,116.2461,79.5859,116.28710000000001Q79.2578,116.3281,79.0527,116.3281Q78.6016,116.3281,78.0684,116.30760000000001Q77.5352,116.28710000000001,77.166,116.3691Q77.043,116.4102,76.8789,116.5127Q76.7148,116.6152,76.6328,116.6152Q76.3047,116.6152,76.1611,116.5127Q76.0176,116.4102,75.7715,116.3281Q75.4434,115.959,75.1768,115.5488Q74.9102,115.1387,74.623,114.7285Q74.377,114.4414,74.0898,114.2158Q73.80273,113.9902,73.55664,113.66210000000001Q72.90039,112.7188,72.22363,111.8574Q71.54688,110.9961,70.84961,110.1348Q70.52148,109.6836,70.13184,109.27340000000001Q69.74219,108.86330000000001,69.41406,108.4531Q69.08594,108.00200000000001,68.79883,107.5098Q68.51172,107.0176,68.18359,106.5664Q67.9375,106.1562,67.48633,105.5615Q67.03516,104.9668,66.54297,104.3516Q66.05078,103.7363,65.53809,103.18260000000001Q65.02539,102.6289,64.65625,102.3418Q64.65625,102.0547,64.492188,101.9316Q64.328125,101.8086,64.123047,101.6445Q64.0410156,101.4395,63.9179688,101.25489999999999Q63.794922,101.0703,63.794922,100.8242Q63.794922,100.5371,63.9179688,100.291Q64,100.127,64.0205078,99.9834Q64.0410156,99.8398,64.123047,99.6758Q64.328125,99.1426,64.717773,98.7324Q65.10742,98.3223,65.3125,97.7891Q65.35352,97.625,65.35352,97.48140000000001Q65.35352,97.3379,65.43555,97.1738Q65.55859,96.8867,65.80469,96.6611Q66.05078,96.4355,66.25586,96.1484Q66.46094,95.7793,66.66602,95.4102Q66.87109,95.041,67.07617,94.6719Q67.65039,93.7285,68.34766,92.8467Q69.04492,91.9648,69.66016,91.1035Q70.23438,90.2832,70.72656,89.4834Q71.21875,88.6836,71.79297,87.8633Q72.08008,87.4531,72.44922,86.9404Q72.81836,86.4277,73.20801,85.9355Q73.59766,85.4434,74.0078,85.0127Q74.418,84.582,74.8281,84.377Q75.5254,84.2949,75.7305,84.60249999999999Q75.9355,84.9102,76.3047,84.9102Q76.8789,85.0332,77.084,85.2793Q77.2891,85.5254,77.4941,85.7305Q78.0273,85.7305,78.3965,85.9355Q78.7656,86.1406,79.1348,86.5508Q78.9707,87.002,78.7041,87.3711Q78.4375,87.7402,78.2324,88.1504Q77.9043,88.2734,77.7607,88.5605Q77.6172,88.8477,77.3301,89.0527Q76.8789,89.75,76.4277,90.4268Q75.9766,91.1035,75.5254,91.7188Q75.3203,91.9648,75.0742,92.1084Q74.8281,92.252,74.623,92.5391Q74.541,92.6621,74.5,92.8057Q74.459,92.9492,74.377,93.0723Q73.88477,93.8516,73.26953,94.5898Q72.6543,95.3281,72.20312,96.1484Q71.99805,96.4355,71.875,96.7432Q71.75195,97.0508,71.58789,97.3379Q71.42383,97.625,71.11621,98.0557Q70.80859,98.4863,70.50098,98.9375Q70.19336,99.3887,69.96777,99.8398Q69.74219,100.291,69.74219,100.5781Q69.7832,100.7832,70.27539,101.3984Q70.76758,102.0137,71.38281,102.7109Q71.99805,103.4082,72.55176,104.04390000000001Q73.10547,104.6797,73.22852,104.8027Q73.31055,105.0078,73.84375,105.6846Q74.377,106.3613,75.05369999999999,107.1611Q75.7305,107.96090000000001,76.3867,108.69919999999999Q77.043,109.4375,77.2891,109.7656L77.6172,110.2988Q77.6992,110.2578,78.0479,109.72460000000001Q78.3965,109.1914,78.7656,108.5352Q79.1348,107.8789,79.44239999999999,107.3047Q79.75,106.7305,79.832,106.5664Q79.9551,106.4434,80.2422,105.9102Q80.5293,105.377,80.8779,104.7617Q81.2266,104.1465,81.4932,103.6133Q81.7598,103.0801,81.8008,102.916L81.3086,102.916Q80.6523,102.916,80.0166,102.97749999999999Q79.3809,103.0391,78.7246,103.2441Q78.4375,103.2031,78.2324,103.0801Q78.0273,102.957,77.7402,102.834Q77.6172,102.4238,77.6377,102.2598Q77.6582,102.0957,77.6172,102.0137Q77.5762,101.8496,77.5146,101.7676Q77.4531,101.6855,77.4531,101.5215Q77.4531,101.2344,77.3711,101.0498Q77.2891,100.8652,77.207,100.6191Q77.207,100.4551,77.22749999999999,100.291Q77.248,100.127,77.166,100.0039Q77.248,99.2656,77.043,98.9375Q77.043,98.3633,77.207,98.1992Q77.3711,98.0352,77.4531,97.707Q77.8223,97.8301,78.0889,97.6455Q78.3555,97.4609,78.6426,97.4609Q79.2988,97.4609,79.709,97.2559Q80.0781,97.2148,80.4678,97.2148Q80.8574,97.2148,81.2266,97.1328Q81.4316,97.0918,81.5752,97.0508Q81.7188,97.0098,81.9238,96.9688Q82.1699,96.9277,82.457,96.9277Q82.7441,96.9277,82.9902,96.9277Q83.6465,96.8457,84.3027,96.8252Q84.959,96.8047,85.6152,96.7637Q85.8203,96.8457,86.00489999999999,96.8867Q86.1895,96.9277,86.3535,97.0098Q86.4766,97.0918,86.5586,97.1943Q86.6406,97.2969,86.8457,97.3379Q87.0508,97.543,87.1328,97.748Q87.0508,98.1172,87.1738,98.2812Q86.9688,98.4863,86.9482,98.83500000000001Q86.9277,99.1836,86.8867,99.4707Q87.1738,99.5527,87.3789,99.9219Q87.584,100.291,87.666,100.291L87.8301,100.291ZM97.1406,105.2539Q97.2227,105.459,97.7354,106.1152Q98.24799999999999,106.7715,98.9043,107.55080000000001Q99.56049999999999,108.3301,100.1553,109.0479Q100.75,109.7656,100.9961,110.0938Q101.4473,110.668,101.8779,111.2217Q102.3086,111.77539999999999,102.6777,112.3906L103.416,113.6211Q103.7441,114.0312,104.0107,114.3184Q104.2773,114.6055,104.4414,115.0977Q104.52340000000001,115.42580000000001,104.52340000000001,115.5488Q104.52340000000001,115.83590000000001,104.3184,115.959Q103.9902,115.959,103.9697,116.0615Q103.94919999999999,116.16409999999999,103.7852,116.2461Q103.6211,116.3281,103.27250000000001,116.3486Q102.9238,116.3691,102.7188,116.3691Q102.34960000000001,116.3691,101.7959,116.3486Q101.2422,116.3281,100.91409999999999,116.4512Q100.832,116.4922,100.668,116.57419999999999Q100.5039,116.6562,100.4219,116.6562Q100.0938,116.6562,99.9502,116.55369999999999Q99.8066,116.4512,99.56049999999999,116.4102Q99.2324,116.041,99.0068,115.6514Q98.7812,115.26169999999999,98.4941,114.85159999999999Q98.207,114.56450000000001,97.9199,114.3389Q97.6328,114.11330000000001,97.4277,113.8262Q96.8125,112.9238,96.1562,112.0625Q95.5,111.2012,94.8027,110.3809Q94.4746,109.9297,94.1055,109.56049999999999Q93.7363,109.1914,93.4082,108.7402Q93.0801,108.3301,92.793,107.8584Q92.5059,107.38669999999999,92.2188,106.93549999999999Q91.9727,106.5664,91.5625,105.9717Q91.1523,105.377,90.6602,104.7822Q90.168,104.1875,89.6758,103.6543Q89.1836,103.1211,88.8555,102.834Q88.8145,102.5879,88.6504,102.4443Q88.4863,102.3008,88.2812,102.1777Q88.1992,101.9727,88.0967,101.7881Q87.9941,101.6035,87.9941,101.3984Q87.9941,101.1113,88.1172,100.8652Q88.1992,100.7012,88.2197,100.55760000000001Q88.2402,100.4141,88.3223,100.25Q88.5273,99.7988,88.876,99.3682Q89.2246,98.9375,89.4297,98.4453Q89.5117,98.3223,89.5117,98.17869999999999Q89.5117,98.0352,89.5938,97.9121Q89.6758,97.584,89.94239999999999,97.3584Q90.209,97.1328,90.373,96.8457Q90.5781,96.5176,90.7627,96.16890000000001Q90.9473,95.8203,91.1523,95.4102Q91.7676,94.3848,92.4443,93.4209Q93.1211,92.457,93.8184,91.4727Q94.3516,90.6523,94.8643,89.89359999999999Q95.377,89.1348,95.9102,88.3555Q96.1973,87.9863,96.52539999999999,87.4941Q96.8535,87.002,97.2432,86.5098Q97.6328,86.0176,98.043,85.6074Q98.4531,85.1973,98.86330000000001,84.9512Q99.4785,84.9102,99.6836,85.2178Q99.8887,85.5254,100.2988,85.5254Q100.832,85.6484,100.9961,85.8535Q101.1602,86.0586,101.3652,86.2637Q101.93950000000001,86.2637,102.2881,86.4688Q102.63669999999999,86.6738,102.9648,87.084Q102.8418,87.5352,102.5957,87.88380000000001Q102.34960000000001,88.2324,102.1445,88.6016Q101.8164,88.7656,101.6729,89.0527Q101.5293,89.3398,101.2422,89.5039Q100.832,90.2012,100.3809,90.8369Q99.9297,91.4727,99.4785,92.0879Q99.2324,92.457,98.9658,92.7441Q98.69919999999999,93.0312,98.4941,93.3594Q98.41210000000001,93.4824,98.3506,93.626Q98.28909999999999,93.7695,98.207,93.8926Q97.7148,94.6719,97.1406,95.3486Q96.5664,96.0254,96.07419999999999,96.8457Q95.9102,97.1328,95.80760000000001,97.4404Q95.7051,97.748,95.541,98.0352Q95.377,98.2812,95.0693,98.6914Q94.7617,99.1016,94.4746,99.5732Q94.1875,100.0449,93.9619,100.4756Q93.7363,100.9062,93.7363,101.1934Q93.7773,101.3984,94.249,101.9932Q94.7207,102.5879,95.3154,103.2646Q95.9102,103.9414,96.4434,104.5361Q96.97659999999999,105.1309,97.1406,105.2539ZM99.8477,97.7891Q100.1348,98.4043,100.46289999999999,98.8555Q100.58590000000001,99.0195,100.75,99.1426Q100.91409999999999,99.2656,100.9961,99.4707Q101.0781,99.5527,101.1602,99.8193Q101.2422,100.0859,101.32419999999999,100.209Q101.4473,100.5371,101.8164,100.9473Q102.18549999999999,101.3574,102.18549999999999,101.6855Q102.18549999999999,101.8906,102.1035,102.1367Q102.0215,102.3828,101.9805,102.5879Q101.93950000000001,102.834,101.93950000000001,103.1006Q101.93950000000001,103.3672,101.77539999999999,103.5723Q101.5703,103.7773,101.32419999999999,103.8184Q101.0781,103.8594,100.87299999999999,104.0234Q100.791,104.1055,100.62700000000001,104.3105Q100.46289999999999,104.5156,100.2988,104.7617Q100.1348,105.0078,99.99119999999999,105.2334Q99.8477,105.459,99.8477,105.582Q99.3555,105.623,99.2119,105.60249999999999Q99.0684,105.582,98.9043,105.623Q98.69919999999999,105.418,98.4736,105.2744Q98.24799999999999,105.1309,97.9199,105.0078Q97.83789999999999,104.6797,97.55080000000001,104.249Q97.2637,103.8184,97.0586,103.5312L96.7715,103.1621Q96.1562,102.3008,95.64359999999999,101.501Q95.1309,100.7012,94.8848,99.7168Q95.6641,99.1426,96.0947,98.8555Q96.52539999999999,98.5684,97.0176,98.3223Q97.5098,98.0762,97.98140000000001,97.8506Q98.4531,97.625,98.86330000000001,97.2969Q99.1914,97.2969,99.31450000000001,97.3379Q99.4375,97.3789,99.4785,97.4199Q99.5195,97.4609,99.58109999999999,97.5635Q99.6426,97.666,99.8477,97.7891ZM120.4785,85.4023Q121.1348,85.3203,121.4834,85.50489999999999Q121.832,85.6895,122.2012,85.7305Q122.4062,85.7715,122.6318,85.751Q122.8574,85.7305,123.1035,85.7305Q123.63669999999999,85.7305,123.9443,85.8535Q124.25200000000001,85.9766,124.5801,86.3867Q124.66210000000001,86.4688,124.8057,86.6123Q124.94919999999999,86.7559,124.94919999999999,86.8789Q124.94919999999999,87.207,124.7852,87.4531Q124.6211,87.6992,124.6211,88.1504Q124.6211,88.8477,124.7852,89.5244Q124.94919999999999,90.2012,124.9902,90.8984Q125.1953,93.4414,125.2158,96.00489999999999Q125.2363,98.5684,125.2363,101.0703Q125.2363,101.3984,125.2158,101.66499999999999Q125.1953,101.9316,125.0312,102.1367L125.0312,102.6699Q124.9902,103.7363,125.0723,104.8232Q125.1543,105.9102,125.1543,106.97659999999999Q125.1543,107.9199,125.0518,108.86330000000001Q124.94919999999999,109.8066,124.94919999999999,110.791Q124.94919999999999,111.6934,125.0723,112.5547Q125.1953,113.416,125.1953,114.3184Q124.9902,114.6875,124.94919999999999,114.8926Q124.9082,115.0977,124.7852,115.26169999999999Q124.66210000000001,115.3438,124.51859999999999,115.3027Q124.375,115.26169999999999,124.293,115.3848Q124.08789999999999,115.6309,124.0059,115.959Q123.9238,116.28710000000001,123.5957,116.4922Q123.5137,117.0664,123.16499999999999,117.374Q122.8164,117.6816,122.6523,118.1738Q122.1602,118.2148,121.9756,118.1328Q121.791,118.05080000000001,121.58590000000001,117.9688Q121.5449,117.2715,121.60640000000001,116.9639Q121.668,116.6562,121.668,116.3281Q121.668,115.918,121.46289999999999,115.71289999999999Q121.2578,115.5078,121.17580000000001,115.1797Q120.72460000000001,114.8926,120.56049999999999,114.78999999999999Q120.3965,114.6875,120.27340000000001,114.52340000000001Q120.0273,114.1953,119.86330000000001,113.8262Q119.69919999999999,113.457,119.4941,113.1289Q118.9199,112.18549999999999,118.3252,111.2012Q117.7305,110.2168,117.0332,109.27340000000001Q116.9102,109.0684,116.7461,108.9043Q116.582,108.7402,116.459,108.5352Q115.76169999999999,107.4277,115.1465,106.2793Q114.5312,105.1309,113.71090000000001,104.1055Q113.3828,103.6953,113.2188,103.18260000000001Q113.0547,102.6699,112.72659999999999,102.3008Q112.68549999999999,102.5059,112.68549999999999,102.752Q112.68549999999999,102.998,112.68549999999999,103.2031Q112.68549999999999,104.5977,112.7471,105.9717Q112.8086,107.3457,112.8086,108.7402Q112.8086,109.0273,112.7471,109.2529Q112.68549999999999,109.4785,112.68549999999999,109.7656Q112.68549999999999,110.17580000000001,112.72659999999999,110.5449Q112.7676,110.91409999999999,112.7676,111.2832Q112.7676,111.7344,112.7471,112.1445Q112.72659999999999,112.5547,112.68549999999999,112.9648Q112.6035,113.49799999999999,112.4805,113.9697Q112.3574,114.4414,112.3574,114.9336Q112.3574,115.2207,112.41890000000001,115.4668Q112.4805,115.71289999999999,112.4805,115.918Q112.1934,116.3691,111.7627,116.3691Q111.332,116.3691,111.0449,116.6973Q110.7988,116.6562,110.6553,116.73830000000001Q110.51169999999999,116.8203,110.3887,116.8203Q110.22460000000001,116.8203,110.1221,116.7793Q110.0195,116.73830000000001,109.8965,116.73830000000001Q109.6914,116.73830000000001,109.4863,116.9434Q109.2812,117.14840000000001,109.0762,117.14840000000001Q108.9531,117.14840000000001,108.6455,116.9844Q108.33789999999999,116.8203,107.9893,116.5947Q107.6406,116.3691,107.3535,116.14359999999999Q107.0664,115.918,107.0664,115.7949Q107.02539999999999,115.5898,107.02539999999999,115.2207Q107.02539999999999,114.7285,107.0869,114.2568Q107.14840000000001,113.7852,107.2305,113.293Q107.3535,111.89840000000001,107.3535,110.5244Q107.3535,109.15039999999999,107.3535,107.7559Q107.3535,107.1816,107.374,106.6074Q107.3945,106.0332,107.3945,105.459Q107.3945,104.1055,107.292,102.73140000000001Q107.18950000000001,101.3574,107.18950000000001,100.0039Q107.18950000000001,99.0605,107.2715,98.1377Q107.3535,97.2148,107.3535,96.3125Q107.3535,95.6152,107.3125,94.959Q107.2715,94.3027,107.2715,93.6055Q107.2305,93.1543,107.2715,92.6416Q107.3125,92.1289,107.3125,91.6777Q107.3125,91.1445,107.16890000000001,90.6729Q107.02539999999999,90.2012,107.02539999999999,89.791Q107.02539999999999,89.5449,107.1279,89.3193Q107.2305,89.0938,107.2305,88.8477Q107.2305,88.5195,107.1279,88.1914Q107.02539999999999,87.8633,107.02539999999999,87.5352Q107.02539999999999,87.207,107.1074,86.9199Q107.18950000000001,86.6328,107.18950000000001,86.3047Q107.7637,86.0176,108.2148,86.0176Q108.666,86.0176,108.8711,86.3457Q108.8711,87.084,108.9531,87.4736Q109.0352,87.8633,109.0762,88.2734Q109.0762,88.5195,109.0557,88.8477Q109.0352,89.1758,109.0762,89.4834Q109.1172,89.791,109.2607,89.9961Q109.4043,90.2012,109.77340000000001,90.2012Q109.8555,90.4062,109.9785,90.5703Q110.10159999999999,90.7344,110.1426,90.9805Q110.3887,90.8164,110.4297,90.5293Q110.4707,90.2422,110.4297,89.9961Q110.6348,90.0781,110.7988,90.05760000000001Q110.96289999999999,90.0371,111.12700000000001,90.1191Q111.209,90.6934,111.332,91.124Q111.4551,91.5547,111.41409999999999,92.1289Q112.2344,92.7441,112.8291,93.8721Q113.4238,95,113.957,95.9023Q114.2441,96.3535,114.63380000000001,96.7432Q115.02340000000001,97.1328,115.2285,97.666Q115.5566,97.8711,115.76169999999999,98.1992Q115.9668,98.5273,116.1309,98.8555Q116.9512,100.291,117.93549999999999,101.6445Q118.9199,102.998,119.9863,104.3105Q120.0273,104.0234,120.0273,103.7568Q120.0273,103.4902,120.0273,103.2031L119.9863,99.5117Q119.9863,99.1836,119.9658,98.8965Q119.9453,98.6094,119.9043,98.2812Q119.8223,97.2148,119.86330000000001,96.1895Q119.9043,95.1641,119.86330000000001,94.0977Q119.7812,92.9902,119.7607,91.8418Q119.7402,90.6934,119.6582,89.5449Q119.6172,88.8477,119.5762,88.1504Q119.5352,87.4531,119.5352,86.7559Q119.5352,85.8945,119.69919999999999,85.1973Q119.7812,85.1152,119.88380000000001,85.05369999999999Q119.9863,84.9922,120.15039999999999,84.9922Q120.3965,84.9922,120.4785,85.4023ZM143.6934,85.4023Q144.3496,85.3203,144.69819999999999,85.50489999999999Q145.0469,85.6895,145.416,85.7305Q145.6211,85.7715,145.8467,85.751Q146.07229999999998,85.7305,146.3184,85.7305Q146.85160000000002,85.7305,147.1592,85.8535Q147.4668,85.9766,147.79489999999998,86.3867Q147.877,86.4688,148.0205,86.6123Q148.16410000000002,86.7559,148.16410000000002,86.8789Q148.16410000000002,87.207,148,87.4531Q147.83589999999998,87.6992,147.83589999999998,88.1504Q147.83589999999998,88.8477,148,89.5244Q148.16410000000002,90.2012,148.20510000000002,90.8984Q148.4102,93.4414,148.4307,96.00489999999999Q148.4512,98.5684,148.4512,101.0703Q148.4512,101.3984,148.4307,101.66499999999999Q148.4102,101.9316,148.2461,102.1367L148.2461,102.6699Q148.20510000000002,103.7363,148.2871,104.8232Q148.3691,105.9102,148.3691,106.97659999999999Q148.3691,107.9199,148.26659999999998,108.86330000000001Q148.16410000000002,109.8066,148.16410000000002,110.791Q148.16410000000002,111.6934,148.2871,112.5547Q148.4102,113.416,148.4102,114.3184Q148.20510000000002,114.6875,148.16410000000002,114.8926Q148.123,115.0977,148,115.26169999999999Q147.877,115.3438,147.73340000000002,115.3027Q147.5898,115.26169999999999,147.5078,115.3848Q147.30270000000002,115.6309,147.2207,115.959Q147.1387,116.28710000000001,146.8105,116.4922Q146.7285,117.0664,146.37990000000002,117.374Q146.0312,117.6816,145.8672,118.1738Q145.375,118.2148,145.1904,118.1328Q145.0059,118.05080000000001,144.80079999999998,117.9688Q144.75979999999998,117.2715,144.8213,116.9639Q144.8828,116.6562,144.8828,116.3281Q144.8828,115.918,144.67770000000002,115.71289999999999Q144.4727,115.5078,144.3906,115.1797Q143.9395,114.8926,143.7754,114.78999999999999Q143.6113,114.6875,143.48829999999998,114.52340000000001Q143.2422,114.1953,143.0781,113.8262Q142.91410000000002,113.457,142.709,113.1289Q142.13479999999998,112.18549999999999,141.54000000000002,111.2012Q140.9453,110.2168,140.248,109.27340000000001Q140.125,109.0684,139.96089999999998,108.9043Q139.7969,108.7402,139.6738,108.5352Q138.97660000000002,107.4277,138.3613,106.2793Q137.7461,105.1309,136.92579999999998,104.1055Q136.5977,103.6953,136.4336,103.18260000000001Q136.2695,102.6699,135.9414,102.3008Q135.9004,102.5059,135.9004,102.752Q135.9004,102.998,135.9004,103.2031Q135.9004,104.5977,135.9619,105.9717Q136.02339999999998,107.3457,136.02339999999998,108.7402Q136.02339999999998,109.0273,135.9619,109.2529Q135.9004,109.4785,135.9004,109.7656Q135.9004,110.17580000000001,135.9414,110.5449Q135.98239999999998,110.91409999999999,135.98239999999998,111.2832Q135.98239999999998,111.7344,135.9619,112.1445Q135.9414,112.5547,135.9004,112.9648Q135.8184,113.49799999999999,135.6953,113.9697Q135.57229999999998,114.4414,135.57229999999998,114.9336Q135.57229999999998,115.2207,135.6338,115.4668Q135.6953,115.71289999999999,135.6953,115.918Q135.4082,116.3691,134.97750000000002,116.3691Q134.5469,116.3691,134.25979999999998,116.6973Q134.0137,116.6562,133.87009999999998,116.73830000000001Q133.72660000000002,116.8203,133.6035,116.8203Q133.4395,116.8203,133.3369,116.7793Q133.2344,116.73830000000001,133.1113,116.73830000000001Q132.9062,116.73830000000001,132.7012,116.9434Q132.4961,117.14840000000001,132.291,117.14840000000001Q132.168,117.14840000000001,131.8604,116.9844Q131.55270000000002,116.8203,131.20409999999998,116.5947Q130.8555,116.3691,130.5684,116.14359999999999Q130.2812,115.918,130.2812,115.7949Q130.24020000000002,115.5898,130.24020000000002,115.2207Q130.24020000000002,114.7285,130.30180000000001,114.2568Q130.36329999999998,113.7852,130.4453,113.293Q130.5684,111.89840000000001,130.5684,110.5244Q130.5684,109.15039999999999,130.5684,107.7559Q130.5684,107.1816,130.5889,106.6074Q130.6094,106.0332,130.6094,105.459Q130.6094,104.1055,130.5068,102.73140000000001Q130.4043,101.3574,130.4043,100.0039Q130.4043,99.0605,130.4863,98.1377Q130.5684,97.2148,130.5684,96.3125Q130.5684,95.6152,130.5273,94.959Q130.4863,94.3027,130.4863,93.6055Q130.4453,93.1543,130.4863,92.6416Q130.5273,92.1289,130.5273,91.6777Q130.5273,91.1445,130.3838,90.6729Q130.24020000000002,90.2012,130.24020000000002,89.791Q130.24020000000002,89.5449,130.3428,89.3193Q130.4453,89.0938,130.4453,88.8477Q130.4453,88.5195,130.3428,88.1914Q130.24020000000002,87.8633,130.24020000000002,87.5352Q130.24020000000002,87.207,130.32229999999998,86.9199Q130.4043,86.6328,130.4043,86.3047Q130.9785,86.0176,131.4297,86.0176Q131.8809,86.0176,132.08589999999998,86.3457Q132.08589999999998,87.084,132.168,87.4736Q132.25,87.8633,132.291,88.2734Q132.291,88.5195,132.2705,88.8477Q132.25,89.1758,132.291,89.4834Q132.332,89.791,132.4756,89.9961Q132.6191,90.2012,132.98829999999998,90.2012Q133.0703,90.4062,133.1934,90.5703Q133.3164,90.7344,133.35739999999998,90.9805Q133.6035,90.8164,133.6445,90.5293Q133.6855,90.2422,133.6445,89.9961Q133.8496,90.0781,134.0137,90.05760000000001Q134.17770000000002,90.0371,134.3418,90.1191Q134.4238,90.6934,134.5469,91.124Q134.66989999999998,91.5547,134.6289,92.1289Q135.44920000000002,92.7441,136.0439,93.8721Q136.6387,95,137.1719,95.9023Q137.459,96.3535,137.8486,96.7432Q138.23829999999998,97.1328,138.4434,97.666Q138.7715,97.8711,138.97660000000002,98.1992Q139.1816,98.5273,139.3457,98.8555Q140.166,100.291,141.1504,101.6445Q142.13479999999998,102.998,143.2012,104.3105Q143.2422,104.0234,143.2422,103.7568Q143.2422,103.4902,143.2422,103.2031L143.2012,99.5117Q143.2012,99.1836,143.1807,98.8965Q143.1602,98.6094,143.1191,98.2812Q143.0371,97.2148,143.0781,96.1895Q143.1191,95.1641,143.0781,94.0977Q142.9961,92.9902,142.9756,91.8418Q142.95510000000002,90.6934,142.873,89.5449Q142.832,88.8477,142.791,88.1504Q142.75,87.4531,142.75,86.7559Q142.75,85.8945,142.91410000000002,85.1973Q142.9961,85.1152,143.0986,85.05369999999999Q143.2012,84.9922,143.36520000000002,84.9922Q143.6113,84.9922,143.6934,85.4023ZM159.9355,88.1094Q159.9355,88.4785,159.6895,88.6631Q159.4434,88.8477,159.23829999999998,89.1348Q158.8281,89.5039,158.5205,89.89359999999999Q158.2129,90.2832,157.80270000000002,90.6523Q157.6387,90.8164,157.35160000000002,91.083Q157.0645,91.3496,156.7568,91.61619999999999Q156.44920000000002,91.8828,156.14159999999998,92.0879Q155.834,92.293,155.6289,92.293Q155.30079999999998,92.293,154.7881,92.06739999999999Q154.2754,91.8418,153.9062,91.7598Q153.6191,91.7188,153.3936,91.6982Q153.168,91.6777,152.9629,91.4727Q152.2246,91.3086,152.0195,90.96000000000001Q151.8145,90.6113,151.5684,90.2422Q151.5684,90.0781,151.6914,90.0371Q151.8145,89.9961,151.8965,89.873Q152.3066,89.3398,152.5938,88.99119999999999Q152.8809,88.6426,153.25,88.2734Q153.94729999999998,87.6582,154.583,87.002Q155.2188,86.3457,155.916,85.7715Q156.2441,85.7305,156.4082,85.5254Q156.57229999999998,85.3203,156.9004,85.3203Q157.2285,85.3203,157.45409999999998,85.5254Q157.6797,85.7305,157.86430000000001,85.9971Q158.0488,86.2637,158.23340000000002,86.5303Q158.418,86.7969,158.66410000000002,86.9199Q158.9512,87.125,159.4434,87.4531Q159.9355,87.7812,159.9355,88.1094ZM154.3164,95.7383Q154.6035,95.9023,154.7471,96.16890000000001Q154.8906,96.4355,155.17770000000002,96.5586Q155.4238,96.6816,155.71089999999998,96.6816Q155.998,96.6816,156.2031,96.7637Q156.3672,96.8457,156.44920000000002,96.9688Q156.5312,97.0918,156.61329999999998,97.2148Q156.8594,97.4199,157.3721,97.584Q157.88479999999998,97.748,158.0488,97.9531Q158.33589999999998,98.3223,158.4795,98.8965Q158.623,99.4707,158.70510000000002,100.10640000000001Q158.7871,100.7422,158.8281,101.3779Q158.8691,102.0137,158.9512,102.4648Q159.0332,103.4082,159.1562,104.33109999999999Q159.2793,105.2539,159.2793,106.1973Q159.2793,107.1406,159.19729999999998,108.125Q159.11520000000002,109.1094,159.11520000000002,110.0527Q159.11520000000002,110.5449,159.0947,111.2832Q159.07420000000002,112.0215,158.7461,112.4316Q158.70510000000002,112.5957,158.70510000000002,113.0059L158.70510000000002,114.3184Q158.70510000000002,114.56450000000001,158.7461,114.81049999999999Q158.7871,115.0566,158.7871,115.3438Q158.7871,115.7949,158.541,116Q158.418,115.959,158.2744,115.959Q158.1309,115.959,158.0078,115.959Q157.5566,115.959,157.35160000000002,116.12299999999999Q156.9004,116.082,156.49020000000002,116.041Q156.08010000000002,116,155.6289,116Q154.9316,116,154.1113,116.2051Q153.94729999999998,115.7949,153.9678,115.3438Q153.98829999999998,114.8926,153.7832,114.52340000000001Q153.7422,114.40039999999999,153.7217,114.2979Q153.7012,114.1953,153.7012,114.0723Q153.82420000000002,113.5801,153.82420000000002,113.3955Q153.82420000000002,113.21090000000001,153.82420000000002,113.0059Q153.82420000000002,112.4316,153.7832,111.8369Q153.7422,111.2422,153.82420000000002,110.668Q153.82420000000002,110.46289999999999,153.88569999999999,110.2988Q153.94729999999998,110.1348,153.94729999999998,109.9297Q153.94729999999998,109.72460000000001,153.86520000000002,109.6426Q153.7832,109.56049999999999,153.7832,109.4375Q153.7832,109.31450000000001,153.8037,109.0273Q153.82420000000002,108.7402,153.9062,108.6582Q153.9062,108.3301,153.92680000000001,108.02250000000001Q153.94729999999998,107.7148,153.94729999999998,107.4277Q153.94729999999998,106.7715,153.9062,106.1152Q153.86520000000002,105.459,153.86520000000002,104.8438Q153.86520000000002,104.5566,153.82420000000002,104.4746Q153.7832,104.3926,153.7422,104.3516Q153.7012,104.3105,153.6191,104.28999999999999Q153.5371,104.2695,153.4961,104.1465Q153.6602,102.3418,153.373,100.5371Q153.08589999999998,98.7324,153.08589999999998,96.8867Q153.08589999999998,96.5996,153.168,96.45609999999999Q153.25,96.3125,153.373,96.2305Q153.4961,96.1484,153.5986,96.0459Q153.7012,95.9434,153.7422,95.7383Q154.0703,95.8203,154.3164,95.7383ZM171.912,85.7715Q171.994,85.9355,172.09699999999998,85.9971Q172.199,86.0586,172.24,86.2637Q172.527,86.4688,172.691,86.57130000000001Q172.85500000000002,86.6738,172.89600000000002,86.9199Q173.26600000000002,87.207,173.327,87.2891Q173.389,87.3711,173.43,87.4941Q173.635,87.6582,173.81900000000002,87.7812Q174.00400000000002,87.9043,174.086,88.1504Q174.414,88.4375,174.49599999999998,88.6016Q174.578,88.7656,174.619,88.9707Q174.45499999999998,89.2578,173.963,89.75Q173.471,90.2422,172.85500000000002,90.7959Q172.24,91.3496,171.666,91.8623Q171.09199999999998,92.375,170.764,92.6621Q170.68200000000002,92.8262,170.559,92.9492Q170.436,93.0723,170.35399999999998,93.2363Q170.107,93.4414,169.902,93.667Q169.697,93.8926,169.41,94.0156Q169,94.5898,168.262,95.14359999999999Q167.523,95.6973,167.277,96.2305Q167.31799999999998,96.3535,167.462,96.4766Q167.60500000000002,96.5996,167.688,96.6816Q168.01600000000002,97.0098,168.46699999999998,97.2764Q168.918,97.543,169.24599999999998,97.8711Q169.574,98.1582,169.902,98.4248Q170.23000000000002,98.6914,170.559,98.9785Q170.723,99.1426,170.969,99.4707Q171.37900000000002,99.7988,171.769,100.0654Q172.15800000000002,100.332,172.527,100.6602Q173.30700000000002,101.3164,174.04500000000002,101.9932Q174.78300000000002,102.6699,175.60399999999998,103.3262L175.93200000000002,103.6953Q175.93200000000002,104.0234,176.11599999999999,104.4541Q176.301,104.8848,176.465,105.1719Q176.38299999999998,105.582,176.485,105.6846Q176.588,105.7871,176.67000000000002,105.8691Q176.62900000000002,106.64840000000001,176.711,106.8945Q176.014,107.5098,175.41899999999998,108.02250000000001Q174.824,108.5352,174.373,109.0273Q174.00400000000002,109.4785,173.614,109.8271Q173.225,110.17580000000001,172.773,110.58590000000001Q172.527,110.91409999999999,172.363,111.03710000000001Q172.076,111.32419999999999,171.789,111.48830000000001Q171.297,111.93950000000001,170.825,112.34960000000001Q170.35399999999998,112.7598,169.902,113.1699Q169.574,113.457,169.287,113.7236Q169,113.9902,168.713,114.3184Q168.46699999999998,114.56450000000001,168.159,114.8926Q167.852,115.2207,167.523,115.42580000000001Q167.4,115.6719,167.195,115.85640000000001Q166.99,116.041,166.826,116.2461Q166.539,116.4102,166.293,116.57419999999999Q166.047,116.73830000000001,165.719,116.9023Q165.39100000000002,116.6562,165.083,116.4512Q164.775,116.2461,164.406,116.16409999999999Q164.16,115.959,164.037,115.7539Q163.91410000000002,115.5488,163.58589999999998,115.4668Q163.5039,115.3438,163.4014,115.2002Q163.2988,115.0566,163.2168,114.8926Q162.7246,114.85159999999999,162.4375,114.2773Q162.5195,114.0312,162.6631,113.9082Q162.8066,113.7852,162.7246,113.457Q162.9707,113.0469,163.3193,112.7393Q163.668,112.4316,163.9961,112.1035Q164.365,111.77539999999999,164.673,111.4268Q164.98000000000002,111.0781,165.35,110.75Q165.555,110.5449,165.76,110.3604Q165.965,110.17580000000001,166.211,109.9707Q166.662,109.5195,167.13400000000001,109.12989999999999Q167.60500000000002,108.7402,168.098,108.28909999999999Q168.75400000000002,107.6328,169.451,107.0381Q170.148,106.4434,170.723,105.7051Q170.68200000000002,105.541,170.6,105.4795Q170.518,105.418,170.477,105.2949Q169.82,104.6797,169.185,104.08500000000001Q168.549,103.4902,167.811,103.0391Q167.564,102.793,167.482,102.6289Q166.744,102.0957,166.067,101.4395Q165.39100000000002,100.7832,164.57,100.332Q164.406,100.127,164.18099999999998,99.9834Q163.95510000000002,99.8398,163.75,99.7168Q163.627,99.5117,163.48340000000002,99.3682Q163.3398,99.2246,163.13479999999998,99.1426Q162.8066,98.8555,162.70409999999998,98.6709Q162.60160000000002,98.4863,162.3555,98.4453Q162.27339999999998,98.2402,162.0889,98.1172Q161.9043,97.9941,161.69920000000002,97.8301Q161.6172,97.584,161.4531,97.4199Q161.4121,97.0918,161.4941,96.9482Q161.5762,96.8047,161.6172,96.7227Q161.5762,96.4766,161.39159999999998,96.3535Q161.207,96.2305,161.207,95.9434Q161.207,95.7793,161.3096,95.7178Q161.4121,95.6562,161.4531,95.5332L161.5762,94.918Q161.9043,94.6719,162.12990000000002,94.3232Q162.3555,93.9746,162.7246,93.7695Q163.13479999999998,93.1543,163.75,92.7441Q163.95510000000002,92.416,164.263,92.2109Q164.57,92.0059,164.775,91.6777Q165.10399999999998,91.4727,165.329,91.2266Q165.555,90.9805,165.88299999999998,90.7754Q165.965,90.6113,166.067,90.50880000000001Q166.17000000000002,90.4062,166.211,90.2832Q167.31799999999998,89.2168,168.159,88.4375Q169,87.6582,169.902,86.8789Q170.148,86.6738,170.39499999999998,86.4277Q170.64100000000002,86.1816,170.928,85.9766Q171.01,85.8945,171.13299999999998,85.8945Q171.256,85.8945,171.37900000000002,85.8125Q171.87099999999998,85.8125,171.912,85.7715ZM187.252,84.9512Q187.457,85.6895,187.662,86.4072Q187.86700000000002,87.125,188.154,87.8223Q188.76999999999998,87.9043,188.913,87.9453Q189.05700000000002,87.9863,189.262,88.0684Q189.713,89.1348,189.815,90.3447Q189.918,91.5547,190.123,92.7031Q190.902,93.7285,191.251,94.89750000000001Q191.6,96.0664,192.051,97.2559Q192.174,97.666,192.215,97.76859999999999Q192.256,97.8711,192.256,97.9531Q192.502,98.6504,192.748,99.3887Q192.994,100.127,193.281,100.8242Q193.404,101.1934,193.548,101.542Q193.691,101.8906,193.814,102.2188Q193.938,102.6289,194.04,103.0596Q194.143,103.4902,194.266,103.9004Q194.553,104.7207,194.881,105.541Q195.209,106.3613,195.537,107.1816Q195.66,107.4688,196.009,108.4531Q196.357,109.4375,196.727,110.5244Q197.096,111.6113,197.403,112.5342Q197.711,113.457,197.711,113.66210000000001Q197.711,113.9902,197.772,114.3389Q197.834,114.6875,197.875,115.0566Q197.711,115.4668,197.465,115.5078Q197.219,115.5488,197.014,115.4668Q196.809,115.5488,196.624,115.6309Q196.439,115.71289999999999,196.275,115.7949Q196.152,115.83590000000001,196.07,115.918Q195.988,116,195.865,116Q195.373,116,195.229,116.10249999999999Q195.086,116.2051,194.799,116.2051Q194.43,116.082,194.327,116.1846Q194.225,116.28710000000001,194.143,116.3281Q193.979,116.4102,193.773,116.4102Q193.568,116.4102,193.363,116.4512Q193.281,116.28710000000001,193.22,116.12299999999999Q193.158,115.959,193.035,115.7539Q192.584,115.0977,192.399,114.4824Q192.215,113.8672,192.092,113.49799999999999Q191.887,113.0469,191.743,112.5957Q191.6,112.1445,191.39499999999998,111.6934Q191.148,111.77539999999999,190.94299999999998,111.8779Q190.738,111.9805,190.615,112.1445Q190.123,112.1445,190.123,112.2676Q190.123,112.3906,190.041,112.5137Q189.79500000000002,112.5957,189.651,112.6777Q189.50799999999998,112.7598,189.18,112.7188Q188.975,112.9238,188.76999999999998,113.06739999999999Q188.564,113.21090000000001,188.236,113.25200000000001Q187.90800000000002,113.5801,187.56,113.8057Q187.211,114.0312,186.76,113.9082Q186.186,114.0312,185.611,114.13380000000001Q185.037,114.2363,184.463,114.2363Q183.80700000000002,114.0312,183.643,113.8672Q183.47899999999998,113.7031,183.15,113.7031Q183.191,113.1289,182.904,112.9238Q182.904,112.80080000000001,182.925,112.5342Q182.945,112.2676,183.027,112.18549999999999Q183.561,111.93950000000001,183.643,111.6523Q183.725,111.3652,184.094,111.2832Q184.176,111.1191,184.27800000000002,110.9756Q184.381,110.832,184.463,110.668Q184.668,110.58590000000001,184.812,110.5449Q184.95499999999998,110.5039,185.037,110.2988Q185.24200000000002,110.2988,185.652,110.0322Q186.062,109.7656,186.186,109.60159999999999Q186.514,109.4785,186.596,109.376Q186.678,109.27340000000001,186.801,109.1914Q187.211,109.2324,187.334,109.1094Q187.662,109.27340000000001,188.072,109.27340000000001Q188.236,109.27340000000001,188.35899999999998,109.2529Q188.482,109.2324,188.64600000000002,109.2324Q188.975,108.9043,189.487,108.8018Q190,108.69919999999999,190.328,108.3711Q190.20499999999998,108.043,190.123,107.57130000000001Q190.041,107.09960000000001,189.836,106.8125Q189.75400000000002,106.2793,189.56900000000002,105.7871Q189.385,105.2949,189.262,104.8438Q188.811,103.1211,188.195,101.4805Q187.57999999999998,99.8398,187.17000000000002,98.1172Q187.088,97.9121,186.985,97.6865Q186.88299999999998,97.4609,186.801,97.2559Q186.596,97.748,186.596,97.8096Q186.596,97.8711,186.514,97.9531Q186.473,98.1582,186.43200000000002,98.3018Q186.39100000000002,98.4453,186.309,98.6504Q186.186,98.9785,186.083,99.3682Q185.98000000000002,99.7578,185.898,100.0859Q185.69299999999998,100.7832,185.529,101.542Q185.365,102.3008,185.16,103.0391Q184.75,104.3105,184.31900000000002,105.5615Q183.889,106.8125,183.47899999999998,108.084Q183.39600000000002,108.6582,183.29399999999998,108.9658Q183.191,109.27340000000001,183.089,109.58109999999999Q182.986,109.8887,182.925,110.17580000000001Q182.863,110.46289999999999,182.863,110.62700000000001Q182.289,111.93950000000001,181.899,113.293Q181.51,114.6465,180.936,115.918Q180.77100000000002,116,180.648,116.12299999999999Q180.525,116.2461,180.361,116.2461Q180.03300000000002,116.2461,180.013,116.082Q179.99200000000002,115.918,179.828,115.918Q179.664,115.918,179.541,115.9795Q179.418,116.041,179.29500000000002,116.12299999999999Q179.09,116.041,178.82299999999998,116.0205Q178.55700000000002,116,178.434,115.83590000000001Q178.14600000000002,116.041,177.85899999999998,116.041Q177.531,116.041,177.203,115.83590000000001Q176.957,115.918,176.711,115.918Q176.588,115.918,176.424,115.87700000000001Q176.26,115.83590000000001,176.178,115.7539Q176.137,115.5898,176.137,115.42580000000001Q176.137,115.26169999999999,176.137,115.0566Q176.137,114.6465,176.055,114.4414Q176.793,112.34960000000001,177.49,110.19630000000001Q178.188,108.043,178.885,105.8281Q179.25400000000002,104.8027,179.603,103.8184Q179.951,102.834,180.279,101.8086Q180.44299999999998,101.2344,180.566,100.7217Q180.689,100.209,180.89499999999998,99.7168Q181.223,98.6504,181.571,97.5635Q181.92000000000002,96.4766,182.207,95.4102Q182.37099999999998,95.2871,182.412,95.123Q182.453,94.959,182.535,94.7539L182.494,94.2207Q182.781,93.8105,182.88400000000001,93.5029Q182.986,93.1953,183.027,92.8672Q183.232,92.375,183.39600000000002,91.8008Q183.561,91.2266,183.643,90.7344Q183.725,90.0781,183.745,89.2373Q183.76600000000002,88.3965,183.971,87.8223Q184.053,87.6582,184.114,87.5967Q184.176,87.5352,184.176,87.3301Q184.25799999999998,87.248,184.36,87.1455Q184.463,87.043,184.50400000000002,86.9199Q184.709,86.5918,184.647,86.3457Q184.586,86.0996,184.586,85.8125Q184.95499999999998,85.6074,184.914,85.4434Q184.873,85.2793,184.873,85.1152Q184.873,84.9102,185.14,84.7256Q185.406,84.541,185.488,84.3359Q185.73399999999998,84.377,185.98000000000002,84.39750000000001Q186.227,84.418,186.473,84.377Q186.76,84.9102,187.17000000000002,84.9102L187.252,84.9512ZM200.254,83.9668Q200.336,84.0488,200.418,84.1719Q200.5,84.2949,200.623,84.2949Q200.787,84.2949,201.033,84.0488Q201.238,84.1309,201.361,84.1719Q201.484,84.2129,201.566,84.459Q202.018,84.5,202.059,84.5615Q202.1,84.623,202.182,84.6641Q202.469,84.541,202.53,84.5615Q202.592,84.582,202.633,84.7051Q202.92,84.7051,203.002,84.8281Q203.084,84.9512,203.248,84.9922Q203.371,85.5254,203.371,86.0791Q203.371,86.6328,203.371,87.207Q203.371,87.7402,203.412,88.2734Q203.453,88.8066,203.453,89.3809Q203.453,89.9141,203.433,90.4678Q203.412,91.0215,203.371,91.5957Q203.166,91.7598,203.187,91.9238Q203.207,92.0879,203.084,92.1699Q203.043,92.416,203.022,92.6416Q203.002,92.8672,202.961,93.1133Q202.51,92.9082,202.51,92.8672Q202.51,92.8262,202.469,92.7441Q202.264,92.5391,202.038,92.5801Q201.812,92.6211,201.566,92.6211Q201.32,92.6211,201.218,92.47749999999999Q201.115,92.334,200.91,92.334Q200.869,92.0059,200.664,91.8008Q200.582,91.8828,200.5,92.0059Q200.418,92.1289,200.254,92.1289Q200.09,92.0059,199.967,91.8828Q199.844,91.7598,199.844,91.6777L199.885,91.1855Q199.844,90.0371,199.844,89.2988Q199.844,88.5605,199.844,87.8223Q199.844,87.002,199.823,86.1816Q199.803,85.3613,199.762,84.541Q199.885,84.418,199.967,84.19239999999999Q200.049,83.9668,200.254,83.9668ZM215.881,85.7715Q215.963,85.9355,216.065,85.9971Q216.168,86.0586,216.209,86.2637Q216.496,86.4688,216.66,86.57130000000001Q216.824,86.6738,216.865,86.9199Q217.234,87.207,217.296,87.2891Q217.357,87.3711,217.398,87.4941Q217.604,87.6582,217.788,87.7812Q217.973,87.9043,218.055,88.1504Q218.383,88.4375,218.465,88.6016Q218.547,88.7656,218.588,88.9707Q218.424,89.2578,217.932,89.75Q217.439,90.2422,216.824,90.7959Q216.209,91.3496,215.635,91.8623Q215.061,92.375,214.732,92.6621Q214.65,92.8262,214.527,92.9492Q214.404,93.0723,214.322,93.2363Q214.076,93.4414,213.871,93.667Q213.666,93.8926,213.379,94.0156Q212.969,94.5898,212.23,95.14359999999999Q211.492,95.6973,211.246,96.2305Q211.287,96.3535,211.431,96.4766Q211.574,96.5996,211.656,96.6816Q211.984,97.0098,212.436,97.2764Q212.887,97.543,213.215,97.8711Q213.543,98.1582,213.871,98.4248Q214.199,98.6914,214.527,98.9785Q214.691,99.1426,214.938,99.4707Q215.348,99.7988,215.737,100.0654Q216.127,100.332,216.496,100.6602Q217.275,101.3164,218.014,101.9932Q218.752,102.6699,219.572,103.3262L219.9,103.6953Q219.9,104.0234,220.085,104.4541Q220.27,104.8848,220.434,105.1719Q220.352,105.582,220.454,105.6846Q220.557,105.7871,220.639,105.8691Q220.598,106.64840000000001,220.68,106.8945Q219.982,107.5098,219.388,108.02250000000001Q218.793,108.5352,218.342,109.0273Q217.973,109.4785,217.583,109.8271Q217.193,110.17580000000001,216.742,110.58590000000001Q216.496,110.91409999999999,216.332,111.03710000000001Q216.045,111.32419999999999,215.758,111.48830000000001Q215.266,111.93950000000001,214.794,112.34960000000001Q214.322,112.7598,213.871,113.1699Q213.543,113.457,213.256,113.7236Q212.969,113.9902,212.682,114.3184Q212.436,114.56450000000001,212.128,114.8926Q211.82,115.2207,211.492,115.42580000000001Q211.369,115.6719,211.164,115.85640000000001Q210.959,116.041,210.795,116.2461Q210.508,116.4102,210.262,116.57419999999999Q210.016,116.73830000000001,209.688,116.9023Q209.359,116.6562,209.052,116.4512Q208.744,116.2461,208.375,116.16409999999999Q208.129,115.959,208.006,115.7539Q207.883,115.5488,207.555,115.4668Q207.473,115.3438,207.37,115.2002Q207.268,115.0566,207.186,114.8926Q206.693,114.85159999999999,206.406,114.2773Q206.488,114.0312,206.632,113.9082Q206.775,113.7852,206.693,113.457Q206.939,113.0469,207.288,112.7393Q207.637,112.4316,207.965,112.1035Q208.334,111.77539999999999,208.642,111.4268Q208.949,111.0781,209.318,110.75Q209.523,110.5449,209.729,110.3604Q209.934,110.17580000000001,210.18,109.9707Q210.631,109.5195,211.103,109.12989999999999Q211.574,108.7402,212.066,108.28909999999999Q212.723,107.6328,213.42,107.0381Q214.117,106.4434,214.691,105.7051Q214.65,105.541,214.568,105.4795Q214.486,105.418,214.445,105.2949Q213.789,104.6797,213.153,104.08500000000001Q212.518,103.4902,211.779,103.0391Q211.533,102.793,211.451,102.6289Q210.713,102.0957,210.036,101.4395Q209.359,100.7832,208.539,100.332Q208.375,100.127,208.149,99.9834Q207.924,99.8398,207.719,99.7168Q207.596,99.5117,207.452,99.3682Q207.309,99.2246,207.104,99.1426Q206.775,98.8555,206.673,98.6709Q206.57,98.4863,206.324,98.4453Q206.242,98.2402,206.058,98.1172Q205.873,97.9941,205.668,97.8301Q205.586,97.584,205.422,97.4199Q205.381,97.0918,205.463,96.9482Q205.545,96.8047,205.586,96.7227Q205.545,96.4766,205.36,96.3535Q205.176,96.2305,205.176,95.9434Q205.176,95.7793,205.278,95.7178Q205.381,95.6562,205.422,95.5332L205.545,94.918Q205.873,94.6719,206.099,94.3232Q206.324,93.9746,206.693,93.7695Q207.104,93.1543,207.719,92.7441Q207.924,92.416,208.231,92.2109Q208.539,92.0059,208.744,91.6777Q209.072,91.4727,209.298,91.2266Q209.523,90.9805,209.852,90.7754Q209.934,90.6113,210.036,90.50880000000001Q210.139,90.4062,210.18,90.2832Q211.287,89.2168,212.128,88.4375Q212.969,87.6582,213.871,86.8789Q214.117,86.6738,214.363,86.4277Q214.609,86.1816,214.896,85.9766Q214.979,85.8945,215.102,85.8945Q215.225,85.8945,215.348,85.8125Q215.84,85.8125,215.881,85.7715ZM253.779,92.9082Q253.779,93.3594,253.964,93.667Q254.148,93.9746,254.148,94.2207Q254.066,94.6309,254.312,95.1846Q254.559,95.7383,254.559,96.3125Q254.477,96.5586,253.923,96.9482Q253.369,97.3379,252.692,97.7891Q252.016,98.2402,251.38,98.6709Q250.744,99.1016,250.498,99.3477Q250.703,99.6758,251.011,99.8809Q251.318,100.0859,251.605,100.291Q251.852,100.4961,252.323,100.8857Q252.795,101.2754,253.308,101.7266Q253.82,102.1777,254.251,102.5879Q254.682,102.998,254.805,103.2031Q254.887,103.2441,254.948,103.4902Q255.01,103.7363,255.051,104.04390000000001Q255.092,104.3516,255.112,104.6387Q255.133,104.9258,255.133,105.0078Q255.092,105.459,255.153,105.6641Q255.215,105.8691,255.276,106.0947Q255.338,106.3203,255.379,106.52539999999999Q255.42,106.7305,255.42,106.7305Q255.42,106.97659999999999,255.194,107.1816Q254.969,107.38669999999999,254.764,107.55080000000001Q254.559,107.7148,254.374,107.8789Q254.189,108.043,253.984,108.24799999999999Q253.738,108.4531,253.431,108.6377Q253.123,108.8223,252.877,109.0273Q252.713,109.1094,252.59,109.2529Q252.467,109.3965,252.344,109.4785Q251.975,109.8066,251.523,110.1143Q251.072,110.4219,250.662,110.668Q250.211,110.9551,249.801,111.2627Q249.391,111.5703,248.939,111.89840000000001Q248.324,112.2676,247.729,112.61619999999999Q247.135,112.9648,246.561,113.334Q246.273,113.53909999999999,246.007,113.7441Q245.74,113.94919999999999,245.453,114.11330000000001Q244.633,114.56450000000001,243.812,115.0566Q242.992,115.5488,242.213,116.12299999999999Q241.557,116.28710000000001,241.27,116.3896Q240.982,116.4922,240.695,116.4922Q240.449,116.4922,240.388,116.30760000000001Q240.326,116.12299999999999,240.162,116.12299999999999Q239.547,116.2051,239.485,116.14359999999999Q239.424,116.082,239.301,116Q238.686,116.082,238.275,116Q238.152,115.7949,238.111,115.4873Q238.07,115.1797,237.865,114.97460000000001Q237.947,114.56450000000001,237.886,114.1953Q237.824,113.8262,237.906,113.457Q237.783,112.9648,237.783,112.5547Q237.783,112.0215,237.906,111.4473Q237.783,111.0781,237.783,110.709Q237.783,110.3809,237.824,110.0527Q237.865,109.72460000000001,237.865,109.3965Q237.865,108.9863,237.701,108.6582Q237.701,107.9199,237.681,107.2021Q237.66,106.4844,237.66,105.7461Q237.66,105.418,237.66,105.0898Q237.66,104.7617,237.701,104.3926Q237.66,104.1875,237.66,103.7773Q237.66,103.5312,237.742,103.3467Q237.824,103.1621,237.824,102.957Q237.824,102.5059,237.763,102.0957Q237.701,101.6855,237.701,101.2344Q237.701,100.8242,237.763,100.4551Q237.824,100.0859,237.824,99.6758Q237.701,99.5117,237.66,99.3066Q237.619,99.1016,237.619,98.8965Q237.619,98.7324,237.701,98.4043Q237.701,98.0762,237.66,97.707Q237.619,97.3379,237.619,97.0098Q237.619,96.8457,237.64,96.7227Q237.66,96.5996,237.701,96.4355Q237.619,96.1484,237.619,95.8613Q237.619,95.5742,237.619,95.2871Q237.619,94.918,237.66,94.5283Q237.701,94.1387,237.701,93.7695Q237.66,93.1543,237.722,92.8057Q237.783,92.457,237.824,92.0879L237.824,89.75Q237.824,89.4219,237.742,89.0322Q237.66,88.6426,237.66,88.2734Q237.66,88.0684,237.701,87.6582Q237.742,87.248,237.824,87.043Q238.398,86.1816,239.178,86.0586Q239.342,85.9766,239.424,85.833Q239.506,85.6895,239.793,85.6895Q240.285,85.2793,240.449,85.05369999999999Q240.613,84.8281,240.859,84.623Q240.982,84.623,241.085,84.5615Q241.188,84.5,241.352,84.5Q241.639,84.582,241.823,84.6641Q242.008,84.7461,242.213,84.7871Q243.033,85.4023,243.833,85.9971Q244.633,86.5918,245.453,87.248Q245.822,87.5762,246.171,87.9043Q246.52,88.2324,246.889,88.5195Q247.094,88.6426,247.34,88.7656Q247.586,88.8887,247.791,89.0527Q248.242,89.3398,248.693,89.64750000000001Q249.145,89.9551,249.596,90.2422L252.549,92.0879Q252.877,92.293,253.185,92.498Q253.492,92.7031,253.779,92.9082ZM247.914,94.6719Q247.299,94.3848,246.745,93.9746Q246.191,93.5645,245.576,93.3594Q245.248,93.0312,244.879,92.9082Q244.51,92.7852,244.182,92.5391Q243.812,92.2109,243.525,91.9648Q243.238,91.7188,242.787,91.5137Q242.582,92.7852,242.479,93.99510000000001Q242.377,95.2051,242.377,96.4355Q242.377,97.707,242.623,98.8555Q243.074,98.6504,243.484,98.4043Q243.895,98.1582,244.305,97.9121Q244.469,97.8301,244.612,97.748Q244.756,97.666,244.961,97.584Q245.166,97.4199,245.371,97.2559Q245.576,97.0918,245.781,96.9688Q246.232,96.6406,246.663,96.374Q247.094,96.1074,247.545,95.7793Q247.75,95.6152,247.996,95.5127Q248.242,95.4102,248.488,95.2051Q248.447,95.041,248.222,94.9385Q247.996,94.8359,247.914,94.6719ZM246.725,102.3418Q246.602,102.3418,246.479,102.2803Q246.355,102.2188,246.191,102.2188Q245.699,102.5469,245.269,102.77250000000001Q244.838,102.998,244.387,103.2852Q244.182,103.4082,243.977,103.5723Q243.771,103.7363,243.566,103.8184Q243.033,104.1465,242.746,104.3721Q242.459,104.5977,242.295,104.9258Q242.377,106.07419999999999,242.356,107.2227Q242.336,108.3711,242.336,109.56049999999999Q242.336,109.7656,242.459,110.01169999999999Q242.828,109.9707,243.771,109.458Q244.715,108.9453,245.761,108.28909999999999Q246.807,107.6328,247.771,107.0176Q248.734,106.4023,249.186,106.1152Q249.514,106.0332,249.944,105.7871Q250.375,105.541,250.457,105.2129Q249.678,104.3105,248.652,103.7158Q247.627,103.1211,246.725,102.3418ZM266.822,84.9512Q267.027,85.6895,267.23199999999997,86.4072Q267.438,87.125,267.725,87.8223Q268.34000000000003,87.9043,268.483,87.9453Q268.627,87.9863,268.832,88.0684Q269.283,89.1348,269.38599999999997,90.3447Q269.488,91.5547,269.693,92.7031Q270.473,93.7285,270.821,94.89750000000001Q271.16999999999996,96.0664,271.621,97.2559Q271.744,97.666,271.78499999999997,97.76859999999999Q271.826,97.8711,271.826,97.9531Q272.072,98.6504,272.318,99.3887Q272.56399999999996,100.127,272.852,100.8242Q272.975,101.1934,273.118,101.542Q273.262,101.8906,273.385,102.2188Q273.50800000000004,102.6289,273.61,103.0596Q273.71299999999997,103.4902,273.836,103.9004Q274.123,104.7207,274.451,105.541Q274.779,106.3613,275.10699999999997,107.1816Q275.23,107.4688,275.579,108.4531Q275.928,109.4375,276.297,110.5244Q276.666,111.6113,276.974,112.5342Q277.281,113.457,277.281,113.66210000000001Q277.281,113.9902,277.34299999999996,114.3389Q277.404,114.6875,277.445,115.0566Q277.281,115.4668,277.03499999999997,115.5078Q276.789,115.5488,276.584,115.4668Q276.379,115.5488,276.19399999999996,115.6309Q276.01,115.71289999999999,275.846,115.7949Q275.723,115.83590000000001,275.64099999999996,115.918Q275.55899999999997,116,275.43600000000004,116Q274.943,116,274.8,116.10249999999999Q274.656,116.2051,274.369,116.2051Q274,116.082,273.897,116.1846Q273.79499999999996,116.28710000000001,273.71299999999997,116.3281Q273.549,116.4102,273.344,116.4102Q273.139,116.4102,272.93399999999997,116.4512Q272.852,116.28710000000001,272.78999999999996,116.12299999999999Q272.72900000000004,115.959,272.605,115.7539Q272.154,115.0977,271.97,114.4824Q271.78499999999997,113.8672,271.66200000000003,113.49799999999999Q271.457,113.0469,271.313,112.5957Q271.16999999999996,112.1445,270.96500000000003,111.6934Q270.719,111.77539999999999,270.514,111.8779Q270.30899999999997,111.9805,270.18600000000004,112.1445Q269.693,112.1445,269.693,112.2676Q269.693,112.3906,269.611,112.5137Q269.365,112.5957,269.222,112.6777Q269.078,112.7598,268.75,112.7188Q268.54499999999996,112.9238,268.34000000000003,113.06739999999999Q268.135,113.21090000000001,267.807,113.25200000000001Q267.47900000000004,113.5801,267.13,113.8057Q266.781,114.0312,266.33000000000004,113.9082Q265.756,114.0312,265.182,114.13380000000001Q264.60699999999997,114.2363,264.033,114.2363Q263.377,114.0312,263.21299999999997,113.8672Q263.049,113.7031,262.721,113.7031Q262.762,113.1289,262.475,112.9238Q262.475,112.80080000000001,262.495,112.5342Q262.51599999999996,112.2676,262.598,112.18549999999999Q263.131,111.93950000000001,263.21299999999997,111.6523Q263.29499999999996,111.3652,263.664,111.2832Q263.746,111.1191,263.849,110.9756Q263.951,110.832,264.033,110.668Q264.238,110.58590000000001,264.382,110.5449Q264.525,110.5039,264.60699999999997,110.2988Q264.812,110.2988,265.223,110.0322Q265.63300000000004,109.7656,265.756,109.60159999999999Q266.084,109.4785,266.166,109.376Q266.248,109.27340000000001,266.371,109.1914Q266.781,109.2324,266.904,109.1094Q267.23199999999997,109.27340000000001,267.64300000000003,109.27340000000001Q267.807,109.27340000000001,267.93,109.2529Q268.053,109.2324,268.217,109.2324Q268.54499999999996,108.9043,269.058,108.8018Q269.57,108.69919999999999,269.898,108.3711Q269.775,108.043,269.693,107.57130000000001Q269.611,107.09960000000001,269.406,106.8125Q269.324,106.2793,269.14,105.7871Q268.95500000000004,105.2949,268.832,104.8438Q268.381,103.1211,267.76599999999996,101.4805Q267.15,99.8398,266.74,98.1172Q266.658,97.9121,266.55600000000004,97.6865Q266.453,97.4609,266.371,97.2559Q266.166,97.748,266.166,97.8096Q266.166,97.8711,266.084,97.9531Q266.043,98.1582,266.002,98.3018Q265.961,98.4453,265.879,98.6504Q265.756,98.9785,265.653,99.3682Q265.551,99.7578,265.469,100.0859Q265.264,100.7832,265.1,101.542Q264.93600000000004,102.3008,264.73,103.0391Q264.32,104.3105,263.89,105.5615Q263.459,106.8125,263.049,108.084Q262.967,108.6582,262.86400000000003,108.9658Q262.762,109.27340000000001,262.659,109.58109999999999Q262.557,109.8887,262.495,110.17580000000001Q262.43399999999997,110.46289999999999,262.43399999999997,110.62700000000001Q261.85900000000004,111.93950000000001,261.47,113.293Q261.08000000000004,114.6465,260.506,115.918Q260.342,116,260.219,116.12299999999999Q260.096,116.2461,259.932,116.2461Q259.60400000000004,116.2461,259.58299999999997,116.082Q259.562,115.918,259.398,115.918Q259.23400000000004,115.918,259.111,115.9795Q258.988,116.041,258.865,116.12299999999999Q258.65999999999997,116.041,258.394,116.0205Q258.127,116,258.004,115.83590000000001Q257.717,116.041,257.43,116.041Q257.102,116.041,256.773,115.83590000000001Q256.527,115.918,256.281,115.918Q256.158,115.918,255.994,115.87700000000001Q255.83,115.83590000000001,255.748,115.7539Q255.707,115.5898,255.707,115.42580000000001Q255.707,115.26169999999999,255.707,115.0566Q255.707,114.6465,255.625,114.4414Q256.363,112.34960000000001,257.06100000000004,110.19630000000001Q257.75800000000004,108.043,258.45500000000004,105.8281Q258.824,104.8027,259.173,103.8184Q259.52099999999996,102.834,259.85,101.8086Q260.014,101.2344,260.137,100.7217Q260.26,100.209,260.46500000000003,99.7168Q260.793,98.6504,261.142,97.5635Q261.49,96.4766,261.777,95.4102Q261.94100000000003,95.2871,261.98199999999997,95.123Q262.023,94.959,262.105,94.7539L262.06399999999996,94.2207Q262.352,93.8105,262.454,93.5029Q262.557,93.1953,262.598,92.8672Q262.803,92.375,262.967,91.8008Q263.131,91.2266,263.21299999999997,90.7344Q263.29499999999996,90.0781,263.315,89.2373Q263.336,88.3965,263.541,87.8223Q263.623,87.6582,263.685,87.5967Q263.746,87.5352,263.746,87.3301Q263.828,87.248,263.93100000000004,87.1455Q264.033,87.043,264.074,86.9199Q264.279,86.5918,264.21799999999996,86.3457Q264.156,86.0996,264.156,85.8125Q264.525,85.6074,264.48400000000004,85.4434Q264.443,85.2793,264.443,85.1152Q264.443,84.9102,264.71000000000004,84.7256Q264.977,84.541,265.05899999999997,84.3359Q265.305,84.377,265.551,84.39750000000001Q265.797,84.418,266.043,84.377Q266.33000000000004,84.9102,266.74,84.9102L266.822,84.9512ZM297.994,112.0625Q297.953,112.6777,298.26099999999997,112.9854Q298.568,113.293,298.773,113.7441Q298.69100000000003,114.3184,298.89599999999996,114.6465Q298.773,114.8926,298.65,115.2002Q298.527,115.5078,298.281,115.71289999999999Q297.625,116,297.502,116.2051Q297.379,116.4102,297.01,116.4102Q296.805,116.6152,296.55899999999997,116.8408Q296.312,117.0664,296.10699999999997,117.2715Q295.902,117.18950000000001,295.82,117.0664Q295.738,116.9434,295.574,116.73830000000001Q295.164,116.6152,294.836,116.30760000000001Q294.50800000000004,116,294.262,115.6104Q294.01599999999996,115.2207,293.78999999999996,114.78999999999999Q293.56399999999996,114.3594,293.4,113.9902Q292.826,112.9238,292.231,111.8369Q291.637,110.75,291.02099999999996,109.6836Q290.693,109.15039999999999,290.38599999999997,108.5967Q290.078,108.043,289.75,107.4688Q289.668,107.38669999999999,289.586,107.2842Q289.504,107.1816,289.422,107.0586Q289.135,106.64840000000001,288.991,106.1357Q288.848,105.623,288.39599999999996,105.2949Q287.61699999999996,105.2129,286.981,105.5205Q286.346,105.8281,285.85400000000004,106.3203Q285.895,106.6074,285.895,106.8535Q285.895,107.09960000000001,285.895,107.3457Q285.895,108.28909999999999,285.812,109.15039999999999Q285.73,110.01169999999999,285.73,110.9551Q285.73,111.3652,285.77099999999996,111.7959Q285.812,112.22659999999999,285.895,112.63669999999999Q285.77099999999996,113.08789999999999,285.77099999999996,113.6211Q285.77099999999996,113.9082,285.83299999999997,114.1543Q285.895,114.40039999999999,285.895,114.6875Q285.895,115.0977,285.628,115.24119999999999Q285.361,115.3848,285.443,115.7539Q284.951,115.959,284.5,116.16409999999999Q284.049,116.3691,283.557,116.4512Q283.352,116.4922,283.14599999999996,116.4717Q282.94100000000003,116.4512,282.777,116.5332Q282.572,116.6152,282.449,116.8408Q282.326,117.0664,282.121,117.0664Q281.875,117.0664,281.834,116.8818Q281.793,116.6973,281.66999999999996,116.57419999999999Q281.46500000000003,116.4922,281.342,116.4922Q281.219,116.4922,281.096,116.3691Q281.137,116,280.932,115.8154Q280.727,115.6309,280.727,115.0566Q280.727,114.6055,280.788,114.1953Q280.85,113.7852,280.85,113.334Q280.85,112.9648,280.747,112.6572Q280.645,112.34960000000001,280.562,111.9805Q280.52099999999996,111.8164,280.562,111.6523Q280.60400000000004,111.48830000000001,280.60400000000004,111.32419999999999Q280.60400000000004,110.58590000000001,280.54200000000003,109.8271Q280.48,109.0684,280.48,108.3301Q280.48,108.043,280.48,107.7969Q280.48,107.55080000000001,280.52099999999996,107.3047Q280.60400000000004,107.0586,280.66499999999996,106.8945Q280.727,106.7305,280.727,106.4844Q280.727,105.7051,280.562,104.94630000000001Q280.398,104.1875,280.398,103.4492Q280.398,103.0391,280.419,102.6084Q280.43899999999996,102.1777,280.43899999999996,101.7676Q280.43899999999996,100.5781,280.398,99.4297Q280.35699999999997,98.2812,280.35699999999997,97.1328Q280.35699999999997,96.3125,280.398,95.5127Q280.43899999999996,94.7129,280.43899999999996,93.8926Q280.43899999999996,92.8672,280.35699999999997,91.8623Q280.275,90.8574,280.275,89.791Q280.275,89.4219,280.23400000000004,89.2988Q280.193,89.1758,280.111,89.1553Q280.029,89.1348,279.927,89.1143Q279.824,89.0938,279.74199999999996,88.9707Q279.74199999999996,88.7246,279.947,88.6221Q280.152,88.5195,280.152,87.9453Q280.152,87.6172,280.091,87.2891Q280.029,86.9609,280.029,86.6328Q280.029,86.1406,280.23400000000004,85.6484Q280.43899999999996,85.1562,280.60400000000004,84.7051Q281.096,84.6641,281.28,84.7051Q281.46500000000003,84.7461,281.66999999999996,84.6641Q281.793,85.1152,282.203,85.1357Q282.613,85.1562,282.94100000000003,85.2383Q283.31100000000004,85.2793,283.659,85.4229Q284.00800000000004,85.5664,284.336,85.5664Q284.418,85.8125,284.685,85.91499999999999Q284.951,86.0176,285.238,86.0996Q285.56600000000003,86.0586,285.751,85.8125Q285.93600000000004,85.5664,286.264,85.5664Q286.51,85.5664,286.83799999999997,85.91499999999999Q287.166,86.2637,287.33000000000004,86.4688Q287.494,86.5918,287.945,87.002Q288.39599999999996,87.4121,288.93,87.8428Q289.46299999999997,88.2734,289.914,88.6631Q290.365,89.0527,290.488,89.0938Q292.16999999999996,90.7754,293.626,92.1494Q295.082,93.5234,296.805,94.6309Q296.846,94.7539,296.90700000000004,94.8359Q296.969,94.918,297.051,95.041Q297.051,95.3691,296.928,95.5332Q296.805,95.6973,296.805,95.9434Q296.805,96.0664,296.866,96.1895Q296.928,96.3125,296.928,96.4355Q296.969,96.5996,296.948,96.7432Q296.928,96.8867,296.928,97.0508Q296.928,97.4609,297.19399999999996,97.7891Q297.461,98.1172,297.461,98.5273Q297.379,98.8965,297.13300000000004,98.9785Q296.887,99.0605,296.723,99.1836Q296.64099999999996,99.2656,296.579,99.3887Q296.51800000000003,99.5117,296.43600000000004,99.5938Q295.533,100.0039,295.123,100.35249999999999Q294.71299999999997,100.7012,294.262,101.0293Q294.139,101.1113,293.852,101.2959Q293.56399999999996,101.4805,293.277,101.66499999999999Q292.99,101.8496,292.765,102.0547Q292.539,102.2598,292.539,102.3828Q292.539,102.6699,292.88800000000003,103.18260000000001Q293.236,103.6953,293.4,103.9824Q293.852,104.7207,294.221,105.4385Q294.59000000000003,106.1562,295.041,106.8535Q295.861,108.125,296.579,109.4375Q297.297,110.75,297.994,112.0625ZM291.30899999999997,96.8047Q290.365,95.6152,289.278,94.6514Q288.19100000000003,93.6875,287.207,92.6211L286.756,92.5391Q286.51,92.1289,286.202,91.82130000000001Q285.895,91.5137,285.56600000000003,91.1855Q285.60699999999997,91.6367,285.60699999999997,92.0469Q285.60699999999997,92.457,285.60699999999997,92.9082Q285.60699999999997,94.2207,285.546,95.4717Q285.48400000000004,96.7227,285.48400000000004,97.9941Q285.48400000000004,99.2656,285.60699999999997,100.4141Q286.469,100.4141,287.166,99.9219Q287.453,99.7168,287.699,99.49119999999999Q287.945,99.2656,288.23199999999997,99.0605Q288.56100000000004,98.8555,288.991,98.5684Q289.422,98.2812,289.853,97.9941Q290.283,97.707,290.673,97.3994Q291.062,97.0918,291.30899999999997,96.8047Z" fill="#FAFAFA" fill-opacity="1"/></g></g></svg>